<svg width="15" height="14" viewBox="0 0 15 14" fill="none" xmlns="http://www.w3.org/2000/svg">
    <path d="M7.51191 0.149414C3.73232 0.149414 0.671021 3.12492 0.671021 6.79471C0.671021 9.73134 2.63094 12.2216 5.34848 13.0996C5.69052 13.1622 5.81594 12.9565 5.81594 12.7801C5.81594 12.6223 5.81024 12.2042 5.80739 11.6502C3.90448 12.0509 3.50315 10.7587 3.50315 10.7587C3.19189 9.9917 2.7421 9.78656 2.7421 9.78656C2.12243 9.37461 2.78999 9.38307 2.78999 9.38307C3.47693 9.42928 3.83778 10.0678 3.83778 10.0678C4.44776 11.0838 5.43912 10.7902 5.83019 10.6206C5.89176 10.1906 6.06791 9.89815 6.26345 9.7319C4.7442 9.56566 3.14742 8.99422 3.14742 6.44814C3.14742 5.72286 3.41251 5.13001 3.85146 4.66508C3.7745 4.49715 3.54362 3.82146 3.91132 2.90627C3.91132 2.90627 4.48425 2.72819 5.79257 3.58759C6.33984 3.43994 6.92131 3.36668 7.50279 3.3633C8.08426 3.36668 8.66574 3.43994 9.21301 3.58759C10.5128 2.72819 11.0857 2.90627 11.0857 2.90627C11.4534 3.82146 11.2225 4.49715 11.1541 4.66508C11.5902 5.13001 11.8553 5.72286 11.8553 6.44814C11.8553 9.00099 10.2562 9.56284 8.73415 9.72627C8.97358 9.92576 9.19591 10.3332 9.19591 10.9559C9.19591 11.8452 9.18736 12.5598 9.18736 12.7756C9.18736 12.9497 9.30707 13.1577 9.65767 13.0912C12.3946 12.2188 14.3528 9.72683 14.3528 6.79471C14.3528 3.12492 11.2898 0.149414 7.51191 0.149414Z"
          fill="#55678B"/>
</svg>
