<svg width="496" height="852" viewBox="0 0 496 852" fill="none" xmlns="http://www.w3.org/2000/svg">
    <mask id="mask0" mask-type="alpha" maskUnits="userSpaceOnUse" x="0" y="0" width="496" height="852">
        <rect width="496" height="852" fill="#142D51"/>
    </mask>
    <g mask="url(#mask0)">
        <g opacity="0.2">
            <path d="M-460.655 656.232C-418.82 651.088 -376.985 648.516 -334.732 649.25C-323.437 649.618 -312.141 649.985 -302.101 653.66C-291.224 657.701 -282.857 665.05 -274.908 672.766C-238.512 708.04 -210.483 749.56 -172.413 783.363C-70.3362 873.752 89.4727 893.593 202.845 973.326C212.885 953.117 225.854 934.011 240.915 916.374C245.098 911.598 249.7 906.453 256.394 904.616C262.669 902.779 269.362 904.616 276.056 906.453C351.777 926.662 426.661 950.178 499.454 977.001C553.003 920.048 613.663 868.608 680.599 823.781"
                  stroke="#139EEE" stroke-miterlimit="10"/>
            <path d="M-453.125 642.636C-412.127 637.492 -370.71 635.655 -329.294 636.39C-318.417 636.757 -307.121 637.125 -297.081 640.799C-286.622 644.841 -278.255 652.189 -270.307 659.905C-234.329 694.812 -206.718 735.964 -169.485 769.4C-166.138 772.34 -162.373 775.647 -159.026 778.586C-154.424 782.261 -149.822 785.935 -145.221 789.242C-125.14 803.572 -103.386 816.064 -80.7949 827.455C-38.9601 847.296 6.63985 863.096 51.8215 879.998C106.625 901.676 161.01 924.457 207.865 957.159C210.794 951.28 214.141 945.768 217.487 940.257C222.508 932.173 227.946 924.09 233.803 916.374C237.568 911.23 241.752 906.085 245.935 901.309C250.119 896.532 254.72 891.388 261.414 889.551C267.689 888.081 274.383 889.551 280.658 891.021C348.849 908.658 416.203 929.234 481.883 952.382C488.995 954.954 496.107 957.526 503.219 960.098C504.474 958.628 505.729 957.526 506.984 956.056C515.77 946.87 524.973 937.685 534.595 928.866C580.195 885.509 630.397 845.826 683.946 810.553"
                  stroke="#139EEE" stroke-width="1.0328" stroke-miterlimit="10"/>
            <path d="M-445.176 629.408C-404.596 624.632 -364.017 622.795 -323.018 623.897C-312.141 624.264 -301.264 624.632 -291.224 628.674C-280.765 632.715 -272.398 640.064 -264.868 647.413C-229.308 681.951 -202.116 722.369 -165.301 755.805C-161.954 759.112 -158.189 762.052 -154.843 764.991C-150.241 768.665 -145.639 772.34 -140.619 775.647C-120.538 789.977 -98.3655 802.837 -75.7747 814.227C-33.9399 832.966 11.6601 847.664 57.26 863.463C112.482 885.509 167.286 908.657 214.141 941.359C217.069 935.847 220.416 930.336 223.763 924.824C228.783 916.741 234.221 909.025 240.078 901.309C243.843 896.165 248.027 891.388 252.21 886.611C256.394 881.835 260.996 877.058 267.689 875.221C273.964 873.751 280.658 875.221 286.933 876.691C354.706 893.96 421.641 914.169 487.74 936.582C494.852 939.154 501.964 941.359 509.076 943.931C510.331 942.461 511.586 941.359 512.841 939.889C521.627 930.703 530.83 921.885 540.452 913.434C586.052 871.179 635.836 832.599 689.384 798.427"
                  stroke="#139EEE" stroke-width="1.0656" stroke-miterlimit="10"/>
            <path d="M-437.646 616.181C-397.903 611.772 -357.741 609.935 -317.58 611.405C-307.121 611.772 -296.244 612.139 -286.204 616.181C-275.745 620.223 -267.797 627.572 -260.266 634.92C-225.543 669.091 -198.351 709.142 -162.373 742.211C-159.026 745.518 -155.679 748.457 -151.914 751.396C-147.312 755.071 -142.71 758.745 -137.69 762.052C-117.191 776.382 -95.0188 789.242 -72.0096 800.632C-30.1748 818.269 15.4252 831.864 61.0251 846.929C116.665 869.342 171.469 892.491 219.161 925.56C222.089 920.048 225.436 914.904 228.783 909.393C233.803 901.677 239.66 893.593 245.517 886.244C249.282 881.1 253.465 876.324 257.649 871.547C261.832 866.77 266.852 861.994 273.128 860.157C279.403 858.687 286.096 860.157 292.372 861.626C360.144 878.528 426.661 898.002 492.342 920.048C499.454 922.253 506.566 924.825 513.678 927.397C514.933 926.295 516.188 924.825 517.443 923.722C526.647 914.904 535.432 906.086 545.054 897.635C590.654 856.482 640.437 819.004 693.986 785.935"
                  stroke="#139EEE" stroke-width="1.0984" stroke-miterlimit="10"/>
            <path d="M-429.697 602.586C-390.791 598.544 -351.048 597.075 -311.723 598.544C-301.264 598.912 -290.387 599.647 -281.184 603.321C-271.143 607.363 -263.195 614.344 -255.664 621.693C-221.36 655.496 -194.586 695.179 -159.026 727.881C-155.679 731.188 -152.332 734.127 -148.567 737.434C-143.965 741.108 -139.364 744.783 -134.343 748.089C-113.426 762.419 -91.2535 775.279 -68.2444 786.67C-26.4096 802.837 19.1904 815.697 65.2087 829.66C121.267 852.44 176.489 875.956 224.181 908.658C227.109 903.514 230.456 898.002 233.803 892.858C238.823 885.142 244.68 877.426 250.537 870.077C254.302 865.301 258.486 860.157 263.087 855.747C267.271 850.971 272.291 846.194 278.566 844.724C284.842 843.255 291.535 844.724 297.81 846.194C365.164 862.729 431.682 881.468 496.944 903.146C504.056 905.351 511.168 907.923 518.28 910.127C519.535 909.025 520.79 907.555 522.045 906.453C531.249 897.635 540.452 889.184 549.656 881.1C595.256 841.05 645.039 804.674 698.17 772.34"
                  stroke="#139EEE" stroke-width="1.1311" stroke-miterlimit="10"/>
            <path d="M-422.167 589.359C-383.679 585.317 -344.773 584.214 -305.866 586.052C-295.408 586.419 -284.949 587.154 -275.745 590.828C-265.705 594.87 -257.756 601.851 -250.644 609.2C-216.758 642.636 -190.402 681.584 -155.261 714.286C-151.914 717.593 -148.567 720.899 -144.802 723.839C-140.2 727.513 -135.18 731.188 -130.578 734.494C-109.661 748.824 -87.0701 761.685 -64.061 773.075C-22.2262 788.14 23.3738 799.898 69.3921 813.125C125.451 835.906 181.091 859.789 229.619 892.858C232.548 887.714 235.895 882.57 239.66 877.426C244.68 870.077 250.537 862.361 256.394 855.012C260.159 850.236 264.342 845.459 268.944 840.683C273.128 836.273 278.148 831.497 284.423 829.66C290.698 828.19 297.392 829.66 303.667 831.129C370.603 847.296 437.12 865.668 501.964 886.612C509.076 888.816 516.188 891.021 523.3 893.593C524.555 892.491 525.81 891.021 527.065 889.919C536.269 881.468 545.472 873.017 554.676 865.301C600.276 826.353 650.059 790.712 702.771 759.847"
                  stroke="#62828E" stroke-width="1.1639" stroke-miterlimit="10"/>
            <path d="M-414.218 576.131C-376.567 572.456 -338.079 571.721 -300.009 573.191C-289.969 573.559 -279.51 574.293 -270.307 577.968C-260.685 582.01 -252.736 588.991 -245.624 595.972C-212.156 629.041 -185.8 667.621 -151.914 699.955C-148.567 703.262 -145.221 706.569 -141.455 709.509C-136.854 713.55 -131.833 716.857 -126.813 720.532C-105.478 734.862 -82.8867 747.722 -59.4592 759.48C-17.6244 773.442 27.9755 784.098 74.4122 796.223C130.889 819.371 186.948 843.622 235.895 876.691C238.823 871.547 242.17 866.77 245.935 861.626C251.373 854.277 256.812 846.929 263.087 839.58C267.271 834.803 271.036 830.027 275.638 825.617C279.821 821.208 284.841 816.432 291.117 814.594C297.392 813.125 304.085 814.595 309.942 815.697C376.878 831.129 442.559 849.133 507.821 869.709C514.933 871.914 522.045 874.119 528.738 876.323C529.993 875.221 531.248 873.751 532.503 872.649C541.707 864.198 550.911 856.114 560.114 848.398C605.714 810.185 655.079 776.014 707.791 745.885"
                  stroke="#64838F" stroke-width="1.1967" stroke-miterlimit="10"/>
            <path d="M-406.27 562.535C-369.037 559.229 -331.385 558.494 -294.152 560.331C-284.112 560.698 -274.072 561.433 -264.868 565.475C-255.246 569.517 -247.716 576.498 -240.604 583.479C-207.973 616.181 -181.617 654.026 -148.149 686.36C-144.802 689.667 -141.455 692.974 -137.69 696.281C-133.088 700.323 -128.068 703.63 -123.048 707.304C-101.712 721.634 -78.7031 734.494 -55.2756 746.252C-13.4408 759.112 32.1591 768.665 78.5958 780.056C135.491 803.571 191.55 828.189 240.915 861.258C244.262 856.482 247.608 851.705 250.955 846.561C256.394 839.212 261.832 831.864 268.108 824.883C272.291 820.106 276.474 815.697 280.658 810.92C284.841 806.511 289.862 801.734 296.137 800.264C302.412 798.795 309.106 799.897 314.963 801.367C381.48 816.431 447.161 834.068 512.005 853.91C519.116 856.114 525.81 858.319 532.922 860.523C534.177 859.421 535.432 857.951 536.687 856.849C545.891 848.766 555.094 840.682 564.298 833.333C609.898 796.223 659.263 763.154 711.557 734.127"
                  stroke="#66858F" stroke-width="1.2295" stroke-miterlimit="10"/>
            <path d="M-398.74 549.308C-362.343 546.369 -325.529 545.634 -288.296 547.838C-278.674 548.573 -268.633 549.308 -259.43 552.983C-249.808 557.024 -242.277 563.638 -235.584 570.987C-203.371 603.321 -177.433 640.799 -144.802 672.766C-141.455 676.073 -138.109 679.747 -134.344 682.686C-129.742 686.728 -124.722 690.035 -119.701 693.709C-97.9472 708.039 -74.9381 720.899 -51.0922 732.657C-9.67574 744.048 36.3426 752.866 83.1976 763.154C140.511 787.037 196.988 811.655 246.772 845.092C250.119 840.315 253.465 835.538 256.812 830.762C262.251 823.78 268.108 816.432 273.964 809.451C278.148 804.674 282.331 800.265 286.515 795.856C290.698 791.446 295.718 787.037 301.994 785.2C308.269 783.73 314.544 784.833 320.819 786.302C386.918 801 452.599 817.902 517.025 837.376C524.137 839.58 530.83 841.417 537.942 843.989C539.197 842.887 540.452 841.785 541.707 840.315C550.911 832.231 560.115 824.515 569.318 817.167C614.918 781.158 664.283 748.824 716.158 721.267"
                  stroke="#678690" stroke-width="1.2623" stroke-miterlimit="10"/>
            <path d="M-390.791 536.081C-354.813 533.141 -318.835 533.141 -282.439 535.346C-272.817 536.081 -263.195 536.816 -254.409 540.49C-245.206 544.532 -237.675 551.146 -230.982 558.127C-199.187 590.461 -173.668 627.204 -141.455 658.803C-138.109 662.11 -134.762 665.785 -130.997 669.091C-126.395 673.133 -121.375 676.808 -115.936 680.114C-94.1821 694.812 -70.7546 707.304 -46.9087 719.43C-5.49224 729.718 40.5261 737.434 87.3811 746.987C144.695 771.238 201.59 796.223 251.792 829.66C255.139 824.883 258.485 820.474 261.832 815.697C267.271 808.716 273.128 801.735 279.403 794.753C283.586 790.344 287.77 785.568 291.953 781.158C296.137 776.749 301.157 772.34 307.432 770.87C313.707 769.401 319.983 770.503 326.258 771.973C392.357 786.303 457.619 802.837 521.626 821.576C528.738 823.781 535.432 825.618 542.544 827.822C543.799 826.72 545.054 825.618 546.309 824.516C555.513 816.432 564.716 809.083 573.92 802.102C619.52 767.196 668.885 735.964 720.342 709.142"
                  stroke="#698791" stroke-width="1.2951" stroke-miterlimit="10"/>
            <path d="M-383.261 522.486C-348.119 519.914 -312.56 519.914 -277 522.486C-267.797 523.221 -257.756 523.955 -249.389 527.63C-240.186 531.672 -233.074 538.285 -226.38 545.267C-195.422 577.233 -169.903 613.242 -138.527 644.841C-135.18 648.148 -131.833 651.822 -128.068 655.129C-123.466 659.171 -118.028 662.845 -113.008 666.152C-90.8353 680.849 -67.4078 693.709 -43.1436 705.467C-1.72709 714.653 44.7096 721.267 91.5646 729.718C149.297 753.968 206.61 779.321 257.23 813.125C260.577 808.716 263.924 804.307 267.689 799.898C273.128 793.284 278.985 786.303 285.26 779.321C289.443 774.912 293.627 770.503 297.81 766.094C301.994 761.685 307.014 757.275 313.289 755.806C319.564 754.336 325.84 755.438 332.115 756.908C397.795 770.503 463.058 786.67 526.647 805.042C533.759 806.879 540.452 809.083 547.564 811.288C548.819 810.186 550.074 809.083 551.329 807.981C560.533 800.265 569.737 793.284 578.94 786.303C624.54 752.499 673.487 722.369 725.362 696.649"
                  stroke="#6B8992" stroke-width="1.3279" stroke-miterlimit="10"/>
            <path d="M-375.312 509.258C-341.007 507.053 -305.866 507.053 -270.725 509.993C-261.521 510.728 -251.899 511.463 -243.532 515.137C-234.747 519.179 -227.217 525.792 -220.942 532.406C-190.402 564.006 -165.301 599.646 -134.343 630.878C-130.997 634.185 -127.65 637.859 -123.885 641.166C-119.283 645.208 -113.844 648.882 -108.824 652.189C-86.6517 666.887 -62.8059 679.747 -38.5417 691.505C2.87478 699.221 49.3114 705.1 96.1664 712.816C154.317 737.434 211.631 763.154 263.087 796.958C266.434 792.549 269.781 788.507 273.546 784.098C278.985 777.484 284.841 770.503 291.117 763.889C295.3 759.48 299.484 755.071 303.667 751.029C307.851 746.987 312.871 742.578 319.146 740.741C325.421 739.271 331.696 740.373 337.972 741.843C403.652 755.071 468.078 770.503 532.085 788.14C539.197 789.977 545.891 791.814 552.584 794.018C553.839 792.916 555.094 791.814 556.349 790.712C565.553 782.995 574.757 776.382 583.96 769.401C629.56 736.699 678.507 707.672 729.964 683.054"
                  stroke="#6C8A93" stroke-width="1.3607" stroke-miterlimit="10"/>
            <path d="M-367.782 496.03C-333.896 494.193 -299.591 494.56 -265.286 497.5C-256.083 498.235 -246.879 499.337 -238.512 503.011C-229.727 507.053 -222.615 513.667 -216.34 520.281C-186.219 551.513 -161.536 586.786 -131.415 617.65C-128.068 621.325 -124.721 624.999 -120.956 628.306C-116.354 632.348 -110.916 636.022 -105.477 639.329C-82.8866 654.026 -59.0408 666.886 -34.7766 679.012C6.6399 685.625 53.0765 690.402 100.35 697.016C158.919 722.001 216.651 747.722 268.107 781.893C271.454 777.851 274.801 773.442 278.566 769.4C284.005 763.154 289.862 756.173 296.137 749.559C300.32 745.15 304.504 740.74 309.106 736.699C313.289 732.657 318.309 728.248 324.584 726.778C330.86 725.308 337.135 726.411 342.992 727.513C408.254 740.373 472.68 755.438 536.269 772.34C542.962 774.177 550.074 776.014 556.768 778.219C558.023 777.116 559.278 776.014 560.533 774.912C569.736 767.563 578.94 760.949 588.562 754.335C634.162 722.369 683.109 694.444 734.147 670.928"
                  stroke="#6E8C94" stroke-width="1.3934" stroke-miterlimit="10"/>
            <path d="M-359.833 482.435C-326.784 480.598 -292.897 481.333 -259.43 484.272C-250.644 485.007 -241.441 486.11 -233.074 489.784C-224.288 493.826 -217.595 500.072 -211.32 506.686C-181.617 537.55 -157.353 572.089 -127.65 602.953C-124.303 606.628 -120.956 610.302 -117.191 613.609C-112.589 617.65 -107.151 621.325 -101.712 624.632C-79.1216 639.329 -54.8573 652.189 -30.1748 664.314C11.2417 669.826 57.6783 673.133 105.37 679.379C163.939 704.732 222.089 730.82 274.383 764.624C277.729 760.582 281.076 756.54 284.841 752.498C290.28 746.252 296.555 739.638 302.83 733.024C307.014 728.615 311.197 724.573 315.799 720.532C319.983 716.49 325.003 712.448 331.278 710.611C337.135 709.141 343.828 710.244 349.685 711.346C414.529 723.839 478.955 738.168 542.126 754.703C548.819 756.54 555.931 758.377 562.625 760.214C563.88 759.112 565.135 758.01 566.39 756.908C575.593 749.559 584.797 743.313 594.419 736.699C640.019 705.834 688.547 679.012 739.586 656.598"
                  stroke="#708D95" stroke-width="1.4262" stroke-miterlimit="10"/>
            <path d="M-352.303 469.208C-319.672 467.738 -286.622 468.84 -253.573 471.78C-244.787 472.515 -236.002 473.617 -228.053 477.291C-219.686 480.966 -212.993 487.579 -206.718 494.193C-177.852 524.69 -153.587 558.861 -124.303 589.358C-120.956 593.033 -117.61 596.707 -113.844 600.014C-109.243 604.056 -103.804 607.73 -98.3655 611.404C-75.3564 626.102 -51.0922 638.962 -26.4096 651.087C15.0068 655.496 61.4435 657.701 109.135 662.845C168.122 688.565 226.691 715.02 278.985 748.824C282.331 744.782 285.678 741.108 289.443 737.066C294.882 731.187 301.157 724.574 307.432 717.96C311.616 713.918 315.799 709.509 320.401 705.467C324.585 701.425 329.605 697.384 335.88 695.914C341.737 694.444 348.43 695.546 354.287 696.649C419.131 708.406 483.138 722.736 545.891 738.536C552.584 740.373 559.696 742.21 566.39 744.047C567.645 742.945 568.9 741.843 570.155 741.108C579.359 734.127 588.562 727.88 598.184 721.634C643.784 691.872 692.312 666.152 742.933 644.473"
                  stroke="#718E96" stroke-width="1.459" stroke-miterlimit="10"/>
            <path d="M-344.354 455.98C-312.56 454.877 -279.929 455.98 -247.716 459.287C-239.349 460.022 -230.564 461.124 -222.615 464.798C-214.248 468.472 -207.554 475.086 -201.698 481.7C-173.25 511.83 -149.404 545.633 -120.956 575.763C-117.61 579.437 -114.681 583.111 -110.498 586.786C-105.896 591.195 -100.039 594.502 -94.6004 598.176C-71.5913 612.874 -46.9088 625.734 -21.8079 637.859C19.6086 640.798 66.0453 642.268 114.155 646.677C173.561 672.398 232.129 699.22 285.26 733.392C288.606 729.717 292.372 726.043 296.137 722.001C301.994 716.122 307.851 709.508 314.126 703.262C318.309 699.22 322.493 695.179 327.095 691.137C331.696 687.095 336.298 683.053 342.573 681.583C348.43 680.114 354.706 681.216 360.981 682.318C425.406 693.709 488.995 707.304 552.166 722.736C558.859 724.573 565.971 726.043 572.665 727.88C573.92 726.778 575.175 725.675 576.848 724.941C586.052 717.959 595.256 712.08 604.878 706.201C650.478 677.542 699.006 652.924 749.208 632.348"
                  stroke="#739097" stroke-width="1.4918" stroke-miterlimit="10"/>
            <path d="M-336.406 442.385C-305.03 441.65 -273.653 442.752 -241.859 446.427C-233.492 447.529 -224.707 448.631 -217.176 452.306C-209.228 455.98 -202.534 462.594 -196.259 468.84C-168.23 498.602 -144.802 532.038 -116.773 561.8C-113.426 565.475 -110.498 569.517 -106.732 572.823C-102.131 577.233 -96.2738 580.54 -90.8352 584.214C-67.4077 598.911 -42.7252 611.771 -17.6243 624.264C23.7922 626.101 70.2288 626.469 118.339 629.776C177.744 655.863 237.15 683.053 290.28 717.224C293.627 713.55 297.392 709.876 301.157 706.201C307.014 700.323 312.871 694.076 319.564 687.83C323.748 683.788 327.931 679.746 332.533 675.705C337.135 671.663 341.737 667.989 348.012 666.151C353.869 664.682 360.144 665.784 366.419 666.886C430.427 677.909 494.016 690.769 556.768 705.834C563.461 707.304 570.155 709.141 577.267 710.978C578.522 709.876 579.777 709.141 581.45 708.039C590.654 701.425 600.276 695.546 609.48 689.667C655.08 662.11 703.608 638.226 753.81 619.12"
                  stroke="#749198" stroke-width="1.5246" stroke-miterlimit="10"/>
            <path d="M-328.875 429.158C-298.336 428.423 -267.378 430.26 -236.002 433.934C-227.635 435.037 -219.268 436.139 -211.738 439.813C-203.789 443.488 -197.514 449.734 -191.239 456.348C-163.628 485.742 -140.619 518.444 -113.426 548.206C-110.079 551.88 -107.151 555.922 -103.386 559.229C-98.3655 563.638 -92.9269 567.313 -87.4884 570.619C-64.0609 585.317 -38.96 598.177 -13.4408 610.67C27.5573 611.404 74.4124 610.67 122.941 613.242C182.765 639.697 242.17 666.887 296.137 701.426C299.484 697.751 303.249 694.444 307.014 690.77C312.871 685.258 319.146 679.012 325.421 672.766C329.605 668.724 334.207 664.682 338.39 661.008C342.992 657.334 347.594 653.292 353.869 651.822C359.726 650.352 366.001 651.455 371.858 652.189C435.865 662.845 499.036 675.338 561.37 689.668C568.063 691.137 574.757 692.975 581.45 694.812C582.705 693.709 583.96 692.975 585.634 691.872C594.838 685.258 604.46 679.747 613.663 674.235C659.263 647.78 707.373 624.999 757.575 606.628"
                  stroke="#769299" stroke-width="1.5574" stroke-miterlimit="10"/>
            <path d="M-320.927 415.93C-291.224 415.562 -260.685 417.399 -230.145 421.441C-222.197 422.544 -213.83 423.646 -206.299 427.32C-198.351 430.994 -192.076 437.241 -186.219 443.487C-159.444 472.514 -136.435 504.849 -109.661 534.243C-106.314 537.917 -103.386 541.959 -99.6205 545.634C-94.6004 550.043 -89.1618 553.717 -83.305 557.024C-59.4591 571.721 -34.3582 584.949 -8.839 597.074C32.1591 596.707 79.0141 594.87 127.542 596.339C187.785 623.162 247.608 650.719 301.994 685.258C305.34 681.951 309.106 678.644 312.871 674.97C318.728 669.458 325.003 663.58 331.278 657.333C335.462 653.291 340.063 649.617 344.247 645.575C348.849 641.901 353.451 637.859 359.726 636.389C365.583 634.92 371.858 636.022 377.715 636.757C441.304 646.678 504.474 658.803 566.39 672.765C573.083 674.235 579.777 675.705 586.47 677.542C587.725 676.44 588.981 675.705 590.654 674.602C599.858 667.989 609.48 662.845 618.683 657.333C664.283 631.613 712.393 610.302 762.177 593.032"
                  stroke="#78949A" stroke-width="1.5902" stroke-miterlimit="10"/>
            <path d="M-313.396 402.335C-284.112 402.335 -254.409 404.172 -224.707 408.581C-216.758 409.684 -208.809 410.786 -201.279 414.46C-193.749 418.135 -187.474 424.381 -181.617 430.627C-155.261 459.287 -132.67 491.254 -106.732 520.281C-103.386 523.955 -100.457 527.997 -96.6921 531.671C-91.6719 536.081 -86.2334 539.755 -80.3765 543.062C-56.1123 557.759 -31.0114 570.987 -5.49217 583.479C35.506 581.642 82.3609 579.07 131.308 579.805C191.968 606.995 251.792 634.553 306.596 669.459C309.942 666.152 313.708 663.212 317.473 659.538C323.33 654.394 329.605 648.148 335.88 642.269C340.063 638.227 344.665 634.553 349.267 630.878C353.869 627.204 358.471 623.53 364.746 622.06C370.603 620.59 376.878 621.692 382.735 622.427C446.324 631.981 509.076 643.738 570.992 656.966C577.685 658.436 584.379 659.905 591.072 661.743C592.327 660.64 593.582 659.905 595.256 658.803C604.459 652.557 614.082 647.413 623.285 642.269C668.885 617.651 716.995 597.442 766.36 580.907"
                  stroke="#79959A" stroke-width="1.623" stroke-miterlimit="10"/>
            <path d="M-305.448 389.107C-277 389.475 -247.716 391.679 -218.431 395.721C-210.901 396.823 -202.953 398.293 -195.841 401.6C-188.31 405.274 -182.454 411.521 -176.597 417.4C-150.659 445.692 -128.487 477.291 -102.967 505.951C-99.6206 509.625 -96.6922 514.035 -92.927 517.341C-87.9069 521.751 -82.4683 525.425 -76.6114 528.732C-52.3472 543.429 -26.828 556.657 -0.890407 569.15C40.1077 566.21 86.9627 562.536 135.909 562.168C196.57 589.726 257.23 617.651 312.452 652.557C315.799 649.617 319.564 646.31 323.748 643.003C329.605 637.859 335.88 631.981 342.574 626.102C346.757 622.427 351.359 618.386 355.961 615.079C360.562 611.404 365.164 607.73 371.44 606.26C377.296 604.79 383.572 605.525 389.428 606.628C452.599 615.813 514.933 626.836 576.849 639.697C583.542 641.166 590.236 642.636 596.929 644.106C598.184 643.004 599.439 642.269 601.113 641.534C610.735 635.287 619.938 630.511 629.142 625.734C674.742 602.218 722.852 582.745 771.799 567.68"
                  stroke="#7B979B" stroke-width="1.6557" stroke-miterlimit="10"/>
            <path d="M-297.918 375.88C-269.888 376.247 -241.441 378.819 -212.993 383.229C-205.463 384.331 -197.932 385.801 -190.82 389.475C-183.29 393.149 -177.433 399.028 -171.995 405.275C-146.476 433.567 -124.721 464.431 -100.039 492.724C-96.6921 496.765 -93.7637 500.807 -89.9986 504.481C-84.9784 508.891 -79.1215 512.565 -73.2646 515.872C-48.5821 530.569 -23.0628 543.797 2.87475 556.289C43.8729 552.248 90.7278 547.471 140.093 546.369C201.172 573.926 261.832 602.586 317.473 637.492C320.819 634.553 324.585 631.613 328.768 628.306C334.625 623.53 340.9 617.651 347.594 611.772C351.777 608.097 356.379 604.423 360.981 600.749C365.583 597.074 370.184 593.4 376.46 591.93C382.317 590.461 388.592 591.195 394.449 592.298C457.201 601.116 519.535 611.404 581.032 623.897C587.726 625.367 594.419 626.469 601.113 628.306C602.368 627.571 603.623 626.469 605.296 625.734C614.918 619.855 624.122 615.079 633.325 610.302C678.925 587.889 726.617 569.517 775.564 555.554"
                  stroke="#7D989C" stroke-width="1.6885" stroke-miterlimit="10"/>
            <path d="M-289.969 362.652C-262.776 363.387 -234.747 366.327 -207.136 370.736C-199.606 371.838 -192.076 373.308 -185.382 376.982C-178.27 380.657 -172.413 386.536 -166.975 392.782C-142.292 420.707 -120.538 450.836 -96.2738 479.129C-92.927 483.17 -89.9986 487.212 -86.2335 490.886C-81.2133 495.296 -75.3564 498.97 -69.4995 502.644C-44.817 517.342 -18.8794 530.569 7.47653 543.062C48.4747 537.918 95.3297 532.039 144.695 529.834C206.192 557.759 267.271 586.419 323.329 621.325C326.676 618.386 330.441 615.814 334.625 612.507C340.482 607.73 347.175 602.219 353.45 596.707C357.634 593.033 362.236 589.358 366.838 586.052C371.439 582.745 376.041 579.07 382.317 577.601C388.173 576.131 394.449 576.866 399.887 577.601C462.639 586.051 524.555 595.972 585.634 607.73C592.327 608.832 599.021 610.302 605.714 611.772C606.969 611.037 608.225 609.935 609.898 609.2C619.52 603.321 628.724 598.912 637.927 594.502C683.527 573.191 731.219 555.922 780.166 542.694"
                  stroke="#7E999D" stroke-width="1.7213" stroke-miterlimit="10"/>
            <path d="M-282.439 349.058C-255.664 350.16 -228.89 353.099 -201.279 357.876C-194.167 358.978 -186.637 360.448 -179.943 364.122C-172.832 367.797 -167.393 373.676 -161.954 379.555C-137.69 407.112 -116.355 436.874 -92.5087 464.799C-89.1619 468.841 -86.2334 473.25 -82.4683 476.557C-77.4481 480.966 -71.5913 484.64 -65.7344 488.315C-40.6335 503.012 -14.6959 516.24 11.6601 529.1C52.6582 522.486 99.5132 515.872 149.297 512.933C211.212 541.225 272.291 570.252 329.186 605.158C332.951 602.586 336.717 599.647 340.482 596.707C346.339 592.298 353.032 586.419 359.726 581.275C363.909 577.601 368.511 574.294 373.113 570.62C377.715 567.313 382.735 563.638 388.592 562.169C394.449 560.699 400.306 561.434 406.162 562.169C468.496 569.885 530.412 579.438 591.491 590.828C598.184 591.931 604.878 593.401 611.153 594.87C612.408 594.135 613.663 593.033 615.336 592.298C624.958 586.787 634.162 582.378 643.366 578.336C688.966 558.127 736.657 541.96 785.186 529.835"
                  stroke="#809B9E" stroke-width="1.7541" stroke-miterlimit="10"/>
            <path d="M-274.49 335.83C-248.553 337.3 -222.197 340.239 -195.422 345.383C-188.31 346.853 -181.198 348.323 -174.505 351.63C-167.811 355.304 -161.954 361.183 -156.934 367.062C-133.088 394.252 -112.171 423.647 -89.1618 451.204C-85.8151 455.246 -82.8866 459.655 -79.1215 463.329C-74.1013 468.106 -68.2444 471.413 -62.3876 475.087C-37.2867 489.784 -10.9307 503.012 15.8436 515.872C56.8417 508.156 103.697 500.44 153.48 496.398C215.396 525.058 277.311 554.085 334.207 589.359C337.972 586.787 341.737 584.215 345.92 581.275C352.196 576.866 358.471 571.355 365.164 566.21C369.348 562.536 373.95 559.229 378.552 555.922C383.153 552.615 388.173 549.309 394.03 547.839C399.887 546.369 405.744 547.104 411.601 547.839C473.517 555.187 535.014 564.373 596.093 575.029C602.786 576.131 609.48 577.233 615.755 578.703C617.01 577.968 618.265 577.233 619.938 576.131C629.56 570.62 638.764 566.578 648.386 562.536C693.986 543.43 741.678 527.997 789.788 517.342"
                  stroke="#829C9F" stroke-width="1.7869" stroke-miterlimit="10"/>
            <path d="M-266.541 322.603C-241.022 324.44 -215.503 327.747 -189.565 332.891C-182.872 334.36 -175.76 335.83 -169.485 339.137C-162.791 342.811 -157.353 348.69 -152.332 354.202C-129.323 381.024 -108.406 410.052 -85.8151 437.242C-82.4683 441.283 -79.5398 445.693 -75.7747 449.367C-70.7545 454.143 -64.8977 457.45 -58.6224 461.125C-33.1032 475.822 -6.74725 489.417 20.027 501.91C60.6068 493.091 107.88 484.273 158.082 479.496C220.416 508.524 282.331 537.918 340.063 573.192C343.829 570.62 347.594 568.415 351.777 565.476C358.052 561.434 364.328 555.922 371.021 550.778C375.623 547.471 379.806 543.797 384.408 540.49C389.01 537.183 394.03 533.876 399.887 532.407C405.744 530.937 411.601 531.672 417.458 532.407C479.373 539.388 540.452 547.839 601.113 558.127C607.806 559.229 614.081 560.332 620.775 561.801C622.03 561.066 623.703 560.332 624.959 559.597C634.581 554.085 643.784 550.411 653.406 546.737C699.006 528.365 746.279 514.402 794.39 504.482"
                  stroke="#839DA0" stroke-width="1.8197" stroke-miterlimit="10"/>
            <path d="M-259.011 309.007C-234.329 310.844 -209.228 314.518 -183.708 320.03C-177.015 321.5 -170.321 322.969 -164.046 326.644C-157.353 330.318 -152.332 335.829 -147.312 341.708C-124.721 368.163 -104.222 396.823 -82.4682 423.646C-79.1214 427.688 -76.6114 432.097 -72.4279 435.771C-67.4077 440.548 -61.1325 444.222 -55.2756 447.529C-29.7564 462.226 -2.98205 475.821 23.7922 488.681C64.372 478.393 111.645 468.473 161.847 462.961C224.599 491.988 286.933 521.75 344.665 557.391C348.43 555.187 352.196 552.982 356.379 550.043C362.654 546.001 368.93 540.857 376.041 535.713C380.643 532.406 384.827 529.099 389.429 525.792C394.03 522.485 399.051 519.178 404.907 517.709C410.764 516.239 416.621 516.974 422.478 517.709C483.975 524.322 545.054 532.406 605.296 541.959C611.99 543.062 618.265 544.164 624.959 545.634C626.214 544.899 627.887 544.164 629.142 543.429C638.764 538.285 647.968 534.611 657.59 530.936C703.19 513.667 750.463 500.807 798.155 491.988"
                  stroke="#859FA1" stroke-width="1.8525" stroke-miterlimit="10"/>
            <path d="M-251.063 295.779C-227.217 297.984 -202.534 302.026 -177.852 307.17C-171.158 308.639 -164.465 310.109 -158.608 313.784C-152.332 317.458 -147.312 322.969 -142.292 328.481C-120.12 354.569 -100.457 382.861 -78.7032 409.316C-75.3564 413.358 -72.8463 418.134 -68.6628 421.809C-63.6426 426.585 -57.3674 430.26 -51.5105 433.567C-25.5729 448.264 1.20135 461.859 28.394 474.719C68.9738 463.329 116.247 452.306 166.867 446.059C230.038 475.454 292.372 505.583 350.94 541.224C354.706 539.02 358.471 536.815 362.654 534.243C368.929 530.202 375.623 525.057 382.317 520.281C386.918 516.974 391.102 513.667 396.122 510.36C400.724 507.053 405.744 504.114 411.601 502.644C417.458 501.174 423.315 501.909 428.753 502.277C490.25 508.155 550.911 515.872 610.735 524.69C617.428 525.792 623.703 526.527 630.397 527.997C631.652 527.262 633.325 526.527 634.58 525.792C644.202 520.648 653.406 517.341 663.028 514.034C708.628 497.867 755.901 485.742 803.175 478.026"
                  stroke="#87A0A2" stroke-width="1.8852" stroke-miterlimit="10"/>
            <path d="M-243.532 282.552C-220.105 285.124 -196.259 289.166 -172.413 294.677C-166.138 296.147 -159.444 297.984 -153.587 301.291C-147.312 304.965 -142.292 310.477 -137.69 315.988C-115.936 341.708 -96.6921 369.633 -75.7747 395.721C-72.4279 399.763 -69.9178 404.539 -65.7343 408.214C-60.7142 412.99 -54.4389 416.665 -48.1637 419.972C-22.2261 434.669 4.96652 448.264 32.1591 461.124C72.7389 448.631 120.012 436.506 171.051 429.157C234.221 458.92 297.392 489.416 356.379 525.057C360.144 523.22 363.909 521.016 368.093 518.444C374.368 514.769 381.061 509.625 387.755 504.849C392.357 501.542 396.959 498.602 401.561 495.295C406.162 492.356 411.183 489.049 417.039 487.579C422.896 486.11 428.753 486.844 434.192 487.212C495.271 492.723 555.931 499.705 615.755 508.156C622.03 508.89 628.724 509.993 635.417 511.462C636.672 510.728 638.346 509.993 639.601 509.258C649.223 504.481 658.845 501.174 668.048 498.235C713.648 483.17 760.503 472.147 808.195 465.533"
                  stroke="#88A2A3" stroke-width="1.918" stroke-miterlimit="10"/>
            <path d="M-235.584 268.957C-212.993 271.896 -189.565 275.938 -166.138 281.817C-159.863 283.287 -153.588 285.124 -147.731 288.431C-141.874 292.105 -136.854 297.617 -132.252 303.128C-111.334 328.481 -92.0903 356.039 -71.5913 381.759C-68.2445 385.801 -65.7344 390.577 -61.5509 394.619C-56.5307 399.396 -50.2555 403.07 -43.9803 406.377C-17.6244 421.074 9.56828 434.669 37.1793 447.529C77.7591 433.934 125.451 420.707 176.071 412.623C239.66 442.753 302.83 473.25 362.236 509.258C366.001 507.421 369.766 505.584 374.368 503.012C380.643 499.337 387.337 494.561 394.03 489.784C398.632 486.477 403.234 483.538 407.836 480.598C412.438 477.659 417.458 474.352 423.315 473.25C429.172 471.78 435.029 472.515 440.467 472.882C501.128 478.026 561.37 484.64 621.194 492.356C627.469 493.091 634.162 494.193 640.437 495.296C641.692 494.561 643.366 493.826 644.621 493.091C654.243 488.314 663.865 485.375 673.069 482.435C718.669 468.473 765.524 458.552 812.797 453.041"
                  stroke="#8AA3A4" stroke-width="1.9508" stroke-miterlimit="10"/>
            <path d="M-228.053 255.729C-205.881 258.669 -183.29 263.446 -160.699 269.324C-154.843 270.794 -148.567 272.631 -143.129 275.938C-137.272 279.613 -132.67 284.757 -128.068 290.268C-107.569 315.254 -88.7436 342.444 -69.0812 367.796C-65.7344 372.206 -63.2243 376.615 -59.0408 380.657C-54.0207 385.433 -47.7454 389.108 -41.4702 392.782C-15.1143 407.479 12.4967 421.074 40.1077 434.302C80.6875 419.237 128.379 405.275 179.418 396.089C243.425 426.586 307.014 457.45 366.838 493.458C370.603 491.621 374.368 490.152 378.97 487.58C385.245 484.273 391.939 479.496 399.05 474.719C403.652 471.78 408.254 468.473 412.856 465.534C417.458 462.594 422.478 459.655 428.335 458.185C433.773 457.083 439.63 457.45 445.487 457.818C506.148 462.594 565.971 468.473 625.377 475.822C631.652 476.557 638.346 477.291 644.621 478.761C645.876 478.026 647.549 477.291 648.804 476.557C658.426 472.147 668.048 469.208 677.252 466.636C722.852 453.776 769.707 444.957 816.562 440.181"
                  stroke="#8CA4A5" stroke-width="1.9836" stroke-miterlimit="10"/>
            <path d="M-220.105 242.502C-198.769 245.809 -177.015 250.585 -154.843 256.832C-148.986 258.302 -143.129 260.139 -137.69 263.813C-131.833 267.487 -127.232 272.631 -123.048 278.143C-102.967 302.761 -84.5601 329.216 -65.3161 354.569C-61.9693 358.978 -59.4592 363.755 -55.2757 367.429C-50.2555 372.206 -43.5619 375.88 -37.2867 379.554C-10.5124 394.252 17.0985 407.847 45.1279 421.074C85.7076 404.907 133.399 389.843 184.438 379.922C248.863 410.419 312.871 441.651 372.695 477.659C376.46 476.189 380.643 474.352 384.827 472.148C391.102 468.841 398.214 464.064 404.907 459.655C409.509 456.715 414.111 453.776 418.713 450.836C423.315 447.897 428.335 444.957 434.192 443.488C439.63 442.385 445.487 442.753 451.344 443.12C511.586 447.162 571.41 453.041 630.397 459.655C636.672 460.39 643.366 461.125 649.641 462.227C650.896 461.492 652.569 460.757 653.824 460.39C663.446 455.98 673.068 453.408 682.272 450.836C727.872 438.711 774.727 430.995 821.164 427.688"
                  stroke="#8DA6A5" stroke-width="2.0164" stroke-miterlimit="10"/>
            <path d="M-212.575 228.906C-191.657 232.581 -170.74 237.357 -148.986 243.971C-143.129 245.808 -137.69 247.645 -132.252 250.952C-126.813 254.627 -122.211 259.771 -118.028 264.915C-98.3655 289.533 -80.3766 315.253 -61.5509 340.238C-58.2041 344.648 -55.694 349.424 -51.5105 353.466C-46.4903 358.243 -39.7968 361.917 -33.5216 365.591C-6.74728 380.289 21.2821 393.884 49.3114 407.111C89.8912 389.842 137.583 373.675 189.04 362.652C253.465 393.516 317.891 425.115 378.551 461.124C382.317 459.654 386.5 458.184 390.684 456.347C396.959 453.408 404.071 448.631 410.764 444.222C415.366 441.282 419.968 438.343 424.57 435.403C429.172 432.464 434.192 429.525 440.049 428.422C445.487 427.32 451.344 427.687 456.783 427.687C516.606 431.362 576.43 436.506 635.417 442.752C641.693 443.487 648.386 444.222 654.661 445.324C655.916 444.589 657.59 443.854 658.845 443.487C668.467 439.445 678.089 436.873 687.292 434.669C732.892 423.646 779.329 417.032 825.766 414.46"
                  stroke="#8FA7A6" stroke-width="2.0492" stroke-miterlimit="10"/>
            <path d="M-204.626 215.68C-184.545 219.721 -164.046 224.865 -143.129 231.479C-137.69 233.316 -131.833 235.154 -126.813 238.461C-121.375 242.135 -117.191 247.279 -113.008 252.423C-94.182 276.674 -76.6114 302.026 -58.2041 326.644C-54.8573 331.054 -52.3472 335.83 -48.1637 339.872C-43.1435 345.016 -36.45 348.323 -30.1747 351.997C-2.9821 366.695 25.0472 380.657 53.0766 393.885C93.6563 375.513 141.348 358.244 192.805 346.118C257.649 377.35 322.493 408.949 383.153 445.325C386.918 443.855 391.102 442.753 395.285 440.916C401.979 437.977 408.673 433.567 415.784 429.158C420.386 426.219 424.988 423.279 429.59 420.707C434.192 418.135 439.212 415.196 445.069 413.726C450.507 412.624 456.364 412.624 461.803 412.991C521.627 416.298 580.614 420.707 639.601 426.586C645.876 427.321 652.151 427.688 658.845 428.791C660.1 428.056 661.773 427.688 663.028 426.954C672.65 422.912 682.272 420.707 691.476 418.87C737.076 408.949 783.513 403.438 829.531 401.968"
                  stroke="#91A8A7" stroke-width="2.082" stroke-miterlimit="10"/>
            <path d="M-196.677 202.451C-177.433 206.493 -157.353 212.004 -137.272 218.618C-131.833 220.455 -126.395 222.293 -121.375 225.599C-116.355 229.274 -111.753 234.418 -107.988 239.194C-89.5802 263.078 -72.4279 288.063 -54.439 312.314C-51.0922 316.723 -48.5821 321.499 -44.3986 325.541C-39.3784 330.685 -32.6849 334.36 -25.9913 337.666C1.20134 352.364 29.649 366.326 58.0967 379.554C98.2581 359.712 146.368 341.708 198.243 328.848C263.506 360.447 328.35 392.414 389.847 428.79C393.612 427.687 397.795 426.585 402.397 424.748C409.091 422.176 415.784 417.767 422.896 413.358C427.498 410.418 432.1 407.846 437.12 404.907C441.722 402.335 446.742 399.395 452.599 398.293C458.038 397.191 463.894 397.191 469.333 397.558C528.738 400.497 587.726 404.539 646.294 409.683C652.57 410.418 658.845 410.786 665.538 411.888C666.793 411.153 668.467 410.786 669.722 410.051C679.344 406.009 688.966 404.172 698.169 402.335C743.769 393.516 790.206 389.107 835.806 388.74"
                  stroke="#92AAA8" stroke-width="2.1148" stroke-miterlimit="10"/>
            <path d="M-189.147 188.856C-170.321 193.266 -151.077 199.145 -131.415 205.758C-126.395 207.596 -120.956 209.433 -116.354 212.74C-111.334 216.414 -107.151 221.191 -103.386 226.335C-85.3966 249.85 -68.6627 274.468 -51.5104 298.351C-48.1636 302.761 -45.6535 307.905 -41.47 311.946C-36.4498 317.091 -29.7563 320.765 -23.0627 324.072C4.54826 338.769 32.996 352.731 61.4436 365.959C101.605 345.015 149.715 325.909 201.59 311.946C267.271 343.913 332.533 376.247 394.449 412.623C398.214 411.521 402.397 410.418 406.999 408.949C413.693 406.377 420.386 401.967 427.498 397.926C432.1 395.354 436.702 392.414 441.722 389.842C446.324 387.27 451.344 384.698 457.201 383.228C462.64 382.126 468.496 382.126 473.935 382.494C533.34 385.066 591.909 388.372 650.06 393.149C656.335 393.516 662.61 394.251 668.885 395.354C670.14 394.619 671.814 394.251 673.069 393.517C682.691 389.842 692.313 388.005 701.516 386.535C747.116 378.819 793.553 375.145 839.153 375.88"
                  stroke="#94ABA9" stroke-width="2.1475" stroke-miterlimit="10"/>
            <path d="M-181.198 175.629C-163.21 180.406 -144.384 186.284 -125.558 193.266C-120.538 195.103 -115.518 196.94 -110.916 200.614C-105.896 204.289 -102.131 209.065 -98.3656 214.209C-81.2133 237.358 -64.4793 261.608 -47.7454 285.124C-44.3986 289.533 -41.8886 294.677 -37.7051 298.719C-32.6849 303.863 -25.9913 307.537 -19.2978 310.844C8.73157 325.542 37.1793 339.504 66.0453 352.732C106.207 330.686 154.317 310.477 206.61 295.779C272.291 327.746 337.972 360.448 400.305 397.191C404.071 396.089 408.254 395.354 412.856 393.884C419.549 391.312 426.661 387.27 433.355 383.228C437.957 380.656 442.559 378.084 447.579 375.145C452.181 372.573 457.201 370.001 463.058 368.899C468.496 367.796 474.353 367.796 479.792 368.164C538.779 370.001 597.347 373.308 655.498 377.349C661.773 377.717 668.048 378.084 674.324 379.187C675.579 378.452 677.252 378.084 678.507 377.717C688.129 374.043 697.751 372.573 707.373 371.103C752.973 364.489 798.991 361.917 844.591 363.754"
                  stroke="#96ADAA" stroke-width="2.1803" stroke-miterlimit="10"/>
            <path d="M-173.668 162.401C-156.098 167.545 -138.109 173.424 -120.12 180.773C-115.518 182.61 -110.498 184.815 -105.896 188.122C-101.294 191.796 -97.1105 196.573 -93.7637 201.349C-77.0298 224.13 -61.1326 248.013 -44.817 271.161C-41.4702 275.571 -38.9601 280.715 -35.195 284.756C-30.1748 289.901 -23.0629 293.575 -16.3693 296.882C11.66 311.579 40.5261 325.542 69.3921 339.137C109.554 315.621 157.664 294.677 209.957 278.878C276.056 311.212 342.155 344.281 404.907 381.024C408.672 380.289 412.856 379.554 417.458 378.084C424.151 375.88 431.263 371.838 438.375 367.796C442.977 365.224 447.579 362.652 452.599 360.08C457.201 357.508 462.221 354.936 468.078 353.834C473.516 352.732 478.955 352.732 484.394 353.099C542.962 354.569 601.531 357.141 659.263 360.815C665.538 361.182 671.813 361.55 678.089 362.652C679.344 361.917 681.017 361.55 682.272 361.183C691.894 357.876 701.516 356.406 711.138 355.304C756.738 349.792 802.756 348.322 847.938 351.262"
                  stroke="#97AEAB" stroke-width="2.2131" stroke-miterlimit="10"/>
            <path d="M-165.72 148.807C-148.986 153.951 -131.415 160.565 -113.844 167.913C-109.243 169.75 -104.641 171.955 -100.039 175.262C-95.4371 178.936 -91.6719 183.713 -88.3252 188.489C-72.0096 210.903 -56.5307 234.418 -40.6335 257.199C-37.2867 261.976 -35.1949 266.753 -31.0114 271.162C-25.9913 276.306 -18.8793 279.98 -12.1858 283.655C16.2619 298.352 45.1279 312.314 74.4123 325.909C114.574 301.291 162.684 279.245 215.396 262.711C281.913 295.412 348.012 328.481 411.183 365.592C415.366 364.857 419.131 364.49 423.733 363.02C430.427 360.815 437.539 357.141 444.65 353.099C449.252 350.527 454.272 347.955 458.874 345.751C463.476 343.179 468.496 340.974 474.353 339.504C479.792 338.402 485.23 338.402 490.669 338.402C549.238 339.504 606.97 341.341 664.702 344.648C670.977 345.016 677.252 345.383 683.527 346.118C684.782 345.751 686.456 345.016 687.711 344.648C697.751 341.341 706.955 340.239 716.577 339.504C762.177 334.728 808.195 334.728 852.958 338.402"
                  stroke="#99AFAC" stroke-width="2.2459" stroke-miterlimit="10"/>
            <path d="M-158.189 135.579C-141.874 141.091 -125.558 147.704 -108.406 155.42C-103.804 157.258 -99.2022 159.462 -95.0188 162.769C-90.4169 166.443 -87.0702 170.853 -83.7234 175.629C-67.8261 197.675 -52.7656 220.824 -37.7051 243.237C-34.3583 248.014 -32.2665 253.158 -28.083 257.199C-23.0629 262.343 -15.9509 266.018 -9.25737 269.692C19.1903 284.389 48.4747 298.352 77.7591 311.947C117.921 286.227 166.031 262.711 218.742 245.442C285.678 278.51 352.196 311.947 415.784 349.058C419.968 348.69 424.151 347.955 428.753 346.853C435.447 345.016 442.559 340.974 449.671 337.3C454.272 334.728 459.293 332.523 463.895 329.951C468.496 327.746 473.516 325.174 479.373 324.072C484.812 322.97 490.25 322.97 495.689 322.97C553.839 323.705 611.571 325.174 668.885 327.746C675.16 328.114 681.436 328.481 687.711 329.216C688.966 328.849 690.639 328.114 691.894 327.746C701.935 324.807 711.138 323.705 720.76 322.97C766.36 319.296 812.379 320.03 856.723 325.174"
                  stroke="#9BB1AD" stroke-width="2.2787" stroke-miterlimit="10"/>
            <path d="M-150.241 122.352C-134.762 128.23 -118.865 134.844 -102.549 142.928C-98.3655 145.132 -93.7637 146.97 -89.9986 150.276C-85.8151 153.583 -82.4683 158.36 -79.1215 163.137C-64.061 184.815 -49.0004 207.596 -34.3583 229.642C-31.0115 234.419 -28.9197 239.563 -24.7362 243.604C-19.2977 248.748 -12.6042 252.423 -5.49223 256.097C23.3738 270.794 52.6582 284.757 81.9425 298.719C122.104 271.897 170.214 247.279 223.344 229.274C290.28 262.711 357.216 296.147 421.641 333.258C425.825 332.891 430.008 332.523 434.61 331.421C441.304 329.584 448.834 325.909 455.946 322.235C460.548 319.663 465.568 317.458 470.17 315.254C474.771 313.049 479.792 310.477 485.649 309.375C491.087 308.273 496.526 308.273 501.964 308.273C559.696 308.273 617.428 309.375 674.742 311.579C681.017 311.947 687.292 311.947 693.568 312.682C694.823 312.314 696.496 311.579 697.751 311.212C707.791 308.273 717.413 307.538 726.617 307.17C772.217 304.598 817.817 306.435 862.162 312.314"
                  stroke="#9CB2AE" stroke-width="2.3115" stroke-miterlimit="10"/>
            <path d="M-142.292 108.756C-127.232 115.002 -112.171 121.983 -96.6922 129.7C-92.5087 131.904 -88.3252 134.109 -84.5601 137.416C-80.3766 140.722 -77.0298 145.499 -74.1014 149.908C-59.4592 171.219 -45.2353 193.633 -30.5932 215.311C-27.2464 220.088 -25.1546 225.232 -20.9712 229.641C-15.5326 234.785 -8.83904 238.46 -1.72712 242.134C27.1389 256.831 56.8416 271.161 86.5443 284.756C126.706 256.464 174.816 231.111 227.946 212.004C295.3 245.808 362.654 279.612 427.08 316.723C431.263 316.355 435.447 316.355 440.049 315.253C446.742 313.783 454.272 310.109 461.384 306.435C465.986 304.23 471.006 301.658 475.608 299.453C480.21 297.249 485.23 295.044 491.087 293.942C496.526 292.84 501.964 292.84 507.403 292.84C565.135 292.472 622.448 293.207 679.344 294.677C685.619 294.677 691.894 295.044 697.751 295.779C699.006 295.412 700.68 295.044 701.935 294.309C711.975 291.737 721.597 291.003 730.801 290.635C776.401 289.165 822 292.105 866.345 299.086"
                  stroke="#9EB3AF" stroke-width="2.3443" stroke-miterlimit="10"/>
            <path d="M-134.762 95.5283C-120.538 101.775 -105.896 109.123 -90.8352 117.207C-87.0701 119.411 -82.8866 121.616 -79.1214 124.923C-75.3563 128.23 -72.0095 133.006 -69.0811 137.416C-54.8573 158.359 -41.0518 180.405 -27.2463 201.716C-24.3178 206.493 -21.8077 212.005 -17.6243 216.046C-12.1857 221.558 -5.07382 224.865 1.61975 228.539C30.9041 243.236 60.6069 257.566 90.3096 271.161C130.471 241.767 178.581 215.311 232.13 195.47C299.902 229.274 367.256 263.813 432.518 300.923C436.702 300.923 440.885 300.923 445.487 299.821C452.181 298.351 459.711 295.044 466.823 291.37C471.425 289.165 476.445 286.961 481.465 284.756C486.485 282.552 491.087 280.347 496.944 279.245C502.383 278.142 507.821 278.142 513.26 278.142C570.573 277.408 627.469 277.408 684.364 278.51C690.639 278.51 696.496 278.877 702.771 279.245C704.026 278.877 705.7 278.51 706.955 278.142C716.995 275.57 726.617 275.203 735.821 275.203C781.421 274.836 827.021 278.51 870.947 286.961"
                  stroke="#A0B5B0" stroke-width="2.377" stroke-miterlimit="10"/>
            <path d="M-126.813 82.3008C-113.426 88.9146 -99.2022 96.6307 -84.9784 104.714C-81.2132 106.919 -77.4481 109.123 -73.683 112.43C-69.9179 115.737 -66.9894 120.146 -64.061 124.923C-50.2555 145.499 -36.8683 167.178 -23.4812 188.121C-20.5528 192.898 -18.0427 198.41 -13.8592 202.451C-8.42064 207.963 -1.30873 211.637 5.38484 214.944C34.6692 229.641 64.7903 243.971 94.9113 257.566C134.654 227.069 183.183 199.512 237.15 178.568C305.341 212.739 373.113 247.278 438.375 284.756C442.559 284.756 446.742 284.756 451.344 284.021C458.456 282.919 465.568 279.245 473.098 275.938C477.7 273.733 482.72 271.529 487.74 269.324C492.761 267.119 497.781 264.915 503.219 263.813C508.658 262.71 514.096 262.71 519.116 262.343C576.012 261.241 632.907 260.506 689.384 260.873C695.66 260.873 701.516 260.873 707.792 261.608C709.047 261.241 710.72 260.873 711.975 260.506C722.015 257.934 731.637 257.934 740.841 258.301C786.441 259.036 831.623 263.813 875.549 272.998"
                  stroke="#A1B6B0" stroke-width="2.4098" stroke-miterlimit="10"/>
            <path d="M-119.283 68.7061C-106.314 75.6873 -92.927 83.4034 -79.5398 91.8543C-75.7747 94.0589 -72.4279 96.2635 -68.6627 99.5704C-64.8976 102.877 -61.9692 107.286 -59.4591 111.696C-46.4903 132.272 -33.5215 153.216 -20.5527 173.792C-17.6243 178.568 -15.1142 184.08 -10.9307 188.489C-5.49219 194.001 1.61975 197.675 8.73167 200.982C38.4344 215.679 68.5555 230.009 98.6765 243.972C138.42 212.372 186.948 183.713 240.915 162.034C309.106 196.573 377.296 231.479 443.395 268.957C447.579 268.957 451.762 269.324 456.783 268.59C463.894 267.487 471.006 264.18 478.537 260.873C483.557 258.669 488.159 256.832 493.179 254.627C498.199 252.422 503.219 250.585 508.658 249.483C514.096 248.381 519.535 248.381 524.555 248.013C581.45 246.176 637.927 245.441 693.986 245.074C700.261 245.074 706.118 245.074 712.393 245.809C713.648 245.441 715.322 245.074 716.577 244.706C726.617 242.502 736.239 242.502 745.443 242.869C791.043 244.339 836.224 250.585 879.733 260.873"
                  stroke="#A3B8B1" stroke-width="2.4426" stroke-miterlimit="10"/>
            <path d="M-111.334 55.4785C-99.2023 62.8272 -86.2335 70.5433 -73.2647 79.3617C-69.9179 81.5663 -66.1527 84.1383 -63.2243 87.0777C-59.8775 90.3846 -56.9491 94.7938 -54.0206 99.203C-41.4702 119.412 -28.9197 139.988 -16.3693 160.197C-13.4409 165.341 -10.9308 170.485 -6.74731 174.894C-1.30878 180.406 5.80316 184.08 12.9151 187.387C42.6178 202.084 73.1572 216.414 103.278 230.377C143.021 197.308 191.55 167.913 245.935 145.132C314.544 180.038 383.153 214.944 449.671 252.79C453.854 253.157 458.037 253.525 463.058 252.79C470.17 251.688 477.7 248.748 484.812 245.441C489.832 243.237 494.434 241.4 499.454 239.195C504.474 237.358 509.494 235.153 514.933 234.051C520.371 232.949 525.392 232.949 530.83 232.581C587.307 230.377 643.784 228.907 699.843 228.172C705.7 228.172 711.975 228.172 718.25 228.539C719.505 228.172 721.178 227.805 722.433 227.437C732.474 225.232 742.096 225.6 751.299 226.335C796.899 228.907 842.081 236.255 885.171 247.278"
                  stroke="#A5B9B2" stroke-width="2.4754" stroke-miterlimit="10"/>
            <path d="M-103.804 42.251C-92.0902 49.5996 -79.9581 58.0506 -67.826 66.869C-64.4793 69.0736 -61.1325 71.6456 -58.204 74.9525C-54.8572 78.2594 -52.3472 82.6686 -49.4187 86.7104C-37.2866 106.552 -25.1545 126.761 -13.4408 146.602C-10.5123 151.746 -8.00224 157.257 -3.81876 161.667C1.61977 167.178 8.73168 170.852 15.8436 174.527C45.9647 189.224 76.5041 203.554 107.044 217.516C146.787 183.345 195.315 152.848 249.7 129.333C318.728 164.606 387.337 199.88 454.273 237.725C458.456 238.093 462.64 238.828 467.66 238.093C474.772 237.358 482.302 234.418 489.414 231.111C494.434 229.274 499.036 227.07 504.056 225.233C509.076 223.395 514.096 221.558 519.535 220.456C524.973 219.354 529.994 218.986 535.432 218.986C591.909 216.414 647.968 214.577 703.608 213.107C709.465 213.107 715.74 212.74 722.015 213.475C723.27 213.107 724.944 212.74 726.199 212.372C736.239 210.535 745.861 210.903 755.065 212.005C800.665 215.679 845.847 223.763 888.518 236.256"
                  stroke="#A6BAB3" stroke-width="2.5082" stroke-miterlimit="10"/>
            <path d="M-95.8554 28.6562C-84.9784 36.3723 -73.683 44.8233 -61.9692 54.0091C-59.0408 56.2137 -55.694 58.7857 -52.7656 62.0926C-49.8371 65.3995 -46.9087 69.8087 -44.3986 73.8505C-32.6849 93.3244 -21.3895 113.166 -9.6757 132.64C-6.74726 137.784 -4.23719 143.295 -0.0537112 147.705C5.38482 153.216 12.4967 156.89 20.027 160.565C50.1481 175.262 81.1058 189.592 111.645 203.922C151.388 168.648 199.917 137.049 254.72 112.431C324.166 147.705 393.194 183.345 460.548 221.559C464.731 222.293 469.333 222.661 473.935 222.293C481.047 221.559 488.577 218.619 496.107 215.68C501.128 213.842 505.729 212.005 510.75 210.168C515.77 208.331 520.79 206.494 526.228 205.391C531.249 204.289 536.687 203.922 542.126 203.922C598.184 200.982 653.825 198.41 709.465 196.573C715.322 196.206 721.597 196.206 727.454 196.573C728.709 196.206 730.382 195.838 731.637 195.838C741.678 194.001 751.3 194.736 760.922 195.838C806.522 200.615 851.285 209.801 894.375 223.396"
                  stroke="#A8BCB4" stroke-width="2.541" stroke-miterlimit="10"/>
            <path d="M-88.3252 15.4287C-77.8665 23.5122 -67.4077 31.9632 -56.1123 41.149C-53.1839 43.721 -50.2555 45.9256 -47.327 49.2325C-44.3986 52.5394 -41.8885 56.5812 -39.3784 60.6229C-28.5014 79.7294 -17.206 99.2034 -6.32892 118.31C-3.40048 123.454 -0.890381 128.965 3.2931 133.375C8.73163 138.886 16.2619 142.56 23.3738 146.235C53.9132 160.932 84.871 175.262 115.829 189.592C155.572 152.849 204.519 120.514 258.904 95.1616C328.35 130.803 397.795 166.811 465.568 205.024C469.751 205.759 474.353 206.494 478.955 206.126C486.067 205.759 493.597 202.819 501.127 200.247C506.148 198.41 511.168 196.573 515.77 194.736C520.79 192.899 525.81 191.062 531.249 189.959C536.269 188.857 541.707 188.49 546.727 188.122C602.368 184.448 658.008 181.876 713.23 179.304C719.087 178.936 725.362 178.936 731.219 179.304C732.474 178.936 734.147 178.569 735.402 178.569C745.443 177.099 755.065 178.201 764.687 179.304C810.287 185.183 855.05 195.471 897.722 209.801"
                  stroke="#A9BDB5" stroke-width="2.5738" stroke-miterlimit="10"/>
            <path d="M-80.3765 2.20117C-70.7545 10.6521 -60.7141 19.4705 -50.2554 28.6563C-47.327 31.2284 -44.8169 33.8004 -41.8885 36.7399C-38.96 40.0468 -36.8683 44.0885 -34.3582 48.1303C-23.8995 66.8694 -13.0224 85.9758 -2.56372 104.715C0.364713 109.859 2.87482 115.37 7.0583 120.147C12.4968 125.659 20.0271 129.333 27.139 133.007C57.6784 147.705 89.0545 162.402 120.012 176.364C159.755 138.519 208.702 105.082 263.506 78.6272C333.37 114.636 403.234 151.011 471.425 188.857C475.608 189.592 480.21 190.694 485.23 190.327C492.342 189.959 499.873 187.387 507.403 184.815C512.423 182.978 517.443 181.141 522.463 179.671C527.484 177.834 532.504 176.364 537.942 175.262C542.962 174.16 548.401 173.792 553.421 173.425C609.061 169.383 664.283 166.076 719.505 163.137C725.362 162.769 731.637 162.402 737.494 162.769C738.749 162.402 740.423 162.034 741.678 162.034C751.718 160.565 761.34 162.034 770.962 163.137C816.562 170.118 861.325 181.508 903.579 196.941"
                  stroke="#ABBEB6" stroke-width="2.6066" stroke-miterlimit="10"/>
            <path d="M-72.4279 -11.0273C-63.6426 -2.57639 -54.0206 6.60942 -44.3986 16.1627C-41.8885 18.7347 -38.9601 21.3067 -36.8683 24.6136C-34.3582 27.9205 -31.8482 31.9623 -29.7564 36.004C-19.7161 54.3757 -9.67569 73.1148 0.783012 91.4864C3.71145 96.6305 5.80317 102.509 10.405 106.919C15.8435 112.43 23.3738 116.104 30.9041 119.779C61.8618 134.476 93.238 149.173 124.614 163.136C164.357 124.188 213.304 89.6492 268.107 62.4592C337.972 98.4676 407.836 135.211 476.445 173.424C480.628 174.526 485.23 175.261 490.25 175.261C497.362 175.261 505.311 172.689 512.841 170.117C517.861 168.28 522.882 166.81 527.902 164.973C532.922 163.503 537.942 161.666 543.381 160.564C548.401 159.461 553.839 159.094 558.859 158.727C614.081 154.317 669.303 150.276 724.107 146.969C729.964 146.601 736.239 146.234 742.096 146.601C743.351 146.234 745.024 146.234 746.28 145.866C756.32 144.764 765.942 146.234 775.564 147.704C821.164 155.42 865.927 167.912 907.762 184.814"
                  stroke="#ADC0B7" stroke-width="2.6393" stroke-miterlimit="10"/>
            <path d="M-64.8977 -24.6221C-56.5307 -15.8037 -47.7454 -6.25044 -38.5418 3.30282C-36.0317 5.87485 -33.5216 8.44689 -31.4298 11.7538C-28.9198 15.0607 -26.828 19.1024 -24.7362 22.7768C-15.5326 40.781 -5.49225 59.1526 4.12976 77.1568C7.0582 82.3009 9.14995 88.1798 13.7518 92.589C19.1903 98.4679 26.7206 102.142 34.2509 105.449C65.2086 120.146 97.0031 134.844 128.379 149.174C168.122 109.123 217.069 73.4825 272.291 45.1902C342.992 81.9334 413.274 118.677 482.302 156.89C486.485 157.992 491.087 159.094 496.107 159.094C503.219 159.094 511.168 156.522 518.698 154.318C523.718 152.848 528.739 151.011 533.759 149.541C538.779 148.071 543.799 146.234 549.238 145.499C554.258 144.397 559.696 144.03 564.716 143.662C619.52 138.886 674.742 134.476 729.127 130.435C734.984 130.067 740.841 129.7 747.116 129.7C748.371 129.332 750.045 129.332 751.3 128.965C761.34 127.863 770.962 129.7 780.584 131.537C826.184 140.355 870.529 153.95 912.364 171.587"
                  stroke="#AEC1B8" stroke-width="2.6721" stroke-miterlimit="10"/>
            <path d="M-56.949 -37.8496C-49.4187 -28.6638 -41.0518 -19.1105 -32.6848 -9.18985C-30.5931 -6.61782 -28.083 -4.0458 -25.9912 -0.738901C-23.8995 2.56799 -21.8078 6.24232 -19.716 10.2841C-10.9307 27.9209 -1.72705 45.9251 7.89495 63.5618C10.8234 69.0733 12.9151 74.5848 17.517 79.3615C22.9555 85.2404 30.4858 88.9147 38.016 92.2216C69.3921 106.919 101.187 121.616 132.563 135.946C171.887 94.4262 221.253 57.6829 276.474 29.0232C347.175 65.7664 417.876 102.877 487.74 141.458C491.924 142.56 496.526 144.03 501.546 144.03C509.076 144.397 516.606 141.825 524.137 139.62C529.157 138.151 534.177 136.681 539.197 134.844C544.217 133.374 549.237 131.904 554.676 130.802C559.696 129.7 564.716 129.332 570.155 128.965C624.958 123.821 679.344 118.677 733.729 114.268C739.586 113.9 745.443 113.165 751.718 113.533C752.973 113.165 754.646 113.165 755.901 112.798C765.942 111.696 775.982 113.9 785.186 115.737C830.786 125.658 875.131 140.355 916.547 159.094"
                  stroke="#B0C3B9" stroke-width="2.7049" stroke-miterlimit="10"/>
            <path d="M-49.4188 -51.0771C-42.3068 -41.5239 -34.7766 -31.9706 -27.2463 -21.6825C-25.1546 -19.1105 -23.0628 -16.171 -20.9711 -13.2316C-18.8794 -9.92467 -17.206 -6.25034 -15.1142 -2.57601C-6.74726 14.6933 2.03808 32.3301 10.8234 49.5995C13.7518 55.1109 15.8435 60.6224 20.4454 65.3991C25.8839 71.278 33.8325 74.9523 41.3628 78.2592C73.1573 92.9565 104.952 107.654 136.746 121.984C176.071 79.3615 225.436 41.5159 281.076 11.7539C352.195 48.8646 423.315 86.3427 493.179 124.923C497.781 126.393 501.964 127.863 506.984 127.863C514.515 128.23 522.045 126.025 529.575 123.821C534.595 122.351 539.616 120.881 544.636 119.412C549.656 117.942 554.676 116.472 560.115 115.37C565.135 114.268 570.155 113.9 575.175 113.165C629.56 107.286 683.946 102.142 738.331 96.9983C744.188 96.6308 750.045 95.896 755.902 95.896C757.157 95.5286 758.83 95.5285 760.085 95.5285C770.125 94.7937 780.166 96.9983 789.369 99.2029C834.969 110.226 879.314 126.025 920.312 145.499"
                  stroke="#B2C4BA" stroke-width="2.7377" stroke-miterlimit="10"/>
            <path d="M-41.4701 -64.6719C-35.1949 -55.1186 -28.5014 -44.8305 -20.9711 -34.5424C-18.8793 -31.9704 -17.2059 -29.0309 -15.1142 -26.0914C-13.0225 -22.7845 -11.3491 -19.1102 -9.67567 -15.4359C-1.72705 1.46603 6.63992 18.7354 15.0069 35.6373C17.9353 41.1488 20.027 47.0277 24.6289 51.4369C30.0674 57.3158 38.016 60.9901 45.5463 64.6645C77.3408 79.3618 109.554 94.0591 141.348 108.756C180.673 65.0319 230.038 26.084 285.678 -4.41289C357.216 33.0653 428.335 70.5434 499.036 109.491C503.638 110.961 507.821 112.431 513.26 112.798C520.79 113.533 528.738 111.328 536.269 109.124C541.289 107.654 546.309 106.184 551.329 105.082C556.349 103.612 561.37 102.143 566.808 101.408C571.828 100.305 576.849 99.938 581.869 99.2032C636.254 92.9568 690.221 87.0779 744.188 81.5664C750.045 80.8315 755.902 80.4641 761.758 80.4641C763.013 80.0967 764.687 80.0967 765.942 80.0967C775.982 79.3618 786.023 81.9338 795.226 84.1384C840.826 96.2637 885.171 112.798 926.169 133.742"
                  stroke="#B3C5BB" stroke-width="2.7705" stroke-miterlimit="10"/>
            <path d="M-33.9399 -77.8994C-28.083 -67.9787 -22.2262 -57.6906 -15.5326 -47.4025C-13.8592 -44.463 -12.1858 -41.891 -10.5124 -38.5841C-8.83903 -35.2772 -7.16562 -31.6029 -5.49223 -27.9286C1.61969 -11.3941 9.56831 5.50784 17.5169 22.0423C20.027 27.5538 22.5371 33.4327 27.1389 38.2093C32.5774 44.0883 40.526 47.7626 48.0563 51.4369C80.2691 66.1342 112.482 80.8315 144.695 95.5289C184.019 50.7021 233.385 10.6519 289.443 -20.9473C361.399 16.8983 432.937 54.7438 503.637 93.6917C508.239 95.5289 512.841 96.9986 517.861 97.7335C525.392 98.4683 533.34 96.2637 540.87 94.4266C545.891 92.9568 550.911 91.8546 555.931 90.3848C560.951 88.9151 565.971 87.8128 571.41 86.7105C576.43 85.6082 581.45 85.2407 586.47 84.5059C640.437 77.8921 694.404 71.2783 747.953 65.3994C753.81 64.6645 759.667 63.9297 765.523 64.2971C767.197 64.2971 768.452 63.9296 770.125 63.9296C780.584 63.5622 790.206 66.1343 799.409 68.7063C845.009 81.9339 888.936 99.5706 929.934 121.617"
                  stroke="#B5C7BB" stroke-width="2.8033" stroke-miterlimit="10"/>
            <path d="M-25.9912 -91.127C-20.9711 -80.8388 -15.5325 -70.5507 -9.67566 -59.8952C-8.00226 -56.9557 -6.32888 -54.3837 -5.07383 -51.0768C-3.40044 -47.7699 -2.1454 -44.463 -0.47201 -40.7887C6.22156 -24.2542 13.7518 -7.7197 21.2821 8.07991C23.7922 13.5914 26.3023 19.4703 30.9041 24.2469C36.3426 30.1259 44.2912 33.8002 52.2399 37.4745C84.4527 52.1718 117.084 66.8692 149.297 81.5665C188.621 35.2699 237.986 -5.5151 294.463 -37.8492C366.419 0.363822 438.375 38.5768 509.913 77.5247C514.515 79.3619 519.116 81.199 524.137 81.9339C531.667 82.6688 539.615 80.8316 547.146 78.9944C552.166 77.8921 557.186 76.4224 562.206 75.3201C567.226 74.2178 572.247 72.7481 577.685 72.0132C582.705 70.9109 587.725 70.5435 592.746 69.8086C646.294 62.8274 699.843 55.8462 753.391 49.2324C759.248 48.4975 765.105 47.7627 770.962 47.7627C772.635 47.7627 773.89 47.3952 775.564 47.3952C786.023 47.0278 795.645 49.9672 804.848 52.9067C850.448 67.2366 894.375 85.9757 934.955 108.757"
                  stroke="#B7C8BC" stroke-width="2.8361" stroke-miterlimit="10"/>
            <path d="M-18.461 -104.723C-14.2775 -94.0671 -9.25734 -83.4116 -3.81881 -72.756C-2.56377 -69.8165 -0.890375 -66.8771 0.364669 -63.9376C2.03806 -60.6307 3.29311 -57.3238 4.54815 -53.6495C10.8234 -37.4824 17.5169 -21.3154 24.6288 -5.88324C27.1389 -0.371747 29.649 5.50718 33.8325 10.2838C39.271 16.1627 47.2197 19.8371 55.1683 23.5114C87.7994 38.2087 120.431 53.2735 153.062 67.9708C192.386 20.5719 241.752 -21.3154 298.229 -54.7518C370.603 -16.5388 442.977 22.0417 514.933 61.357C519.535 63.1941 524.137 65.3987 529.157 66.1336C536.687 67.2359 544.636 65.3987 552.584 63.5616C557.604 62.4593 562.625 60.9895 568.063 59.8872C573.083 58.7849 578.103 57.6826 583.542 56.5803C588.562 55.478 593.582 55.1106 598.603 54.3757C652.151 46.6597 705.281 39.311 758.83 32.3298C764.687 31.5949 770.544 30.86 776.4 30.86C778.074 30.86 779.329 30.4926 781.002 30.4926C791.461 30.4926 801.083 33.4321 810.287 36.3715C855.887 51.4363 899.813 71.6451 939.975 95.5282"
                  stroke="#B8C9BD" stroke-width="2.8689" stroke-miterlimit="10"/>
            <path d="M-10.5124 -117.95C-6.74729 -107.295 -2.5638 -96.2717 2.03803 -85.2487C3.29307 -82.3092 4.54812 -79.3697 5.80317 -76.4303C7.05821 -73.1234 8.31326 -69.8165 9.56831 -66.5096C15.4252 -50.71 21.7004 -34.9104 28.394 -19.8456C30.9041 -13.9667 33.4141 -8.08778 37.5976 -3.31115C43.0362 2.56778 51.4031 6.24212 58.9334 9.91645C91.5646 24.6138 124.614 39.6785 157.245 54.3758C196.57 5.87468 245.935 -37.115 302.83 -71.2862C375.623 -32.7058 447.997 6.24211 520.372 45.19C524.973 47.3946 529.575 49.2318 534.595 50.3341C542.126 51.4364 550.074 49.9666 558.023 48.1294C563.043 47.0271 568.063 45.9249 573.502 44.8226C578.522 43.7203 583.542 42.618 588.981 41.5157C594.001 40.7808 599.021 39.6785 603.623 38.9436C656.753 30.8601 709.883 23.144 763.014 15.4279C768.87 14.6931 774.727 13.5908 780.584 13.5908C782.258 13.5908 783.513 13.5908 785.186 13.5908C795.645 13.5908 805.267 16.8977 814.47 20.2046C860.07 36.3716 903.578 57.3153 943.74 82.6681"
                  stroke="#BACBBE" stroke-width="2.9016" stroke-miterlimit="10"/>
            <path d="M-2.56375 -131.178C0.364686 -120.155 4.12982 -108.764 7.89495 -97.7413C9.15 -94.8019 9.98671 -91.8624 11.2418 -88.923C12.4968 -85.6161 13.3335 -82.3092 14.5885 -79.0023C19.6087 -63.5701 25.4656 -48.1379 32.1592 -33.0732C34.6692 -27.1942 37.1793 -21.3153 41.3628 -16.5387C46.8013 -10.6598 55.1683 -6.618 63.1169 -3.3111C96.1664 11.7536 129.216 26.451 161.847 41.1483C201.172 -8.45515 250.537 -52.5471 307.432 -87.8207C380.225 -48.8728 453.436 -9.92489 526.228 29.3904C530.83 31.595 535.432 33.7996 540.87 34.9019C548.401 36.3717 556.768 34.5345 564.298 33.0648C569.318 31.9625 574.757 30.8602 579.777 29.7579C584.797 28.6556 589.817 27.5533 595.256 26.8184C600.276 26.0835 605.296 24.9812 609.898 24.2464C662.61 15.7954 715.74 7.34446 768.452 -1.1065C774.309 -1.84136 779.747 -2.94366 785.604 -2.94366C787.278 -2.94366 788.533 -2.94366 790.206 -2.94366C800.665 -2.57623 810.287 0.730658 819.909 4.03755C865.09 21.3069 908.599 43.3529 948.342 69.4406"
                  stroke="#BCCCBF" stroke-width="2.9344" stroke-miterlimit="10"/>
            <path d="M4.96649 -144.772C7.47658 -133.382 10.405 -121.992 13.7518 -110.601C14.5885 -107.662 15.4252 -104.722 16.6802 -101.415C17.5169 -98.1085 18.772 -94.8016 19.6087 -91.8621C24.2105 -76.7974 29.649 -61.7326 35.5059 -47.0353C38.016 -41.1564 40.5261 -35.2775 44.7096 -30.5008C50.1481 -24.6219 58.5151 -20.5801 66.4637 -17.2732C99.5132 -2.2085 132.981 12.4888 166.031 27.1861C205.355 -23.887 254.72 -68.7139 312.034 -104.722C385.245 -65.407 458.456 -26.0916 531.667 13.2237C536.269 15.4283 540.871 18.0003 546.309 19.1026C553.839 20.5723 562.206 19.1026 570.155 17.6329C575.175 16.5306 580.614 15.7957 585.634 14.6934C590.654 13.5911 595.674 12.8563 601.113 11.754C606.133 11.0191 610.735 9.91679 615.755 9.18192C668.467 0.363532 721.179 -8.82229 773.472 -17.6407C779.329 -18.743 784.768 -19.4778 790.625 -19.8453C792.298 -19.8453 793.553 -19.8453 795.226 -19.8453C805.685 -19.4778 815.307 -15.8035 824.929 -12.1292C870.529 6.24246 914.037 29.3907 953.78 56.5808"
                  stroke="#BDCEC0" stroke-width="2.9672" stroke-miterlimit="10"/>
            <path d="M12.9151 -158C17.9353 -124.931 26.7206 -92.597 38.8527 -60.9977C41.3628 -55.1188 43.8729 -48.8725 48.0564 -44.0958C53.4949 -37.8495 61.8619 -34.1751 69.8105 -30.8683C103.278 -15.8035 136.746 -1.10619 169.796 13.9586C208.702 -38.2169 258.486 -84.146 315.799 -121.257C389.429 -81.574 463.058 -42.2587 536.687 -2.57592C541.289 -0.00389503 545.891 2.56814 551.329 3.67044C559.278 5.5076 567.226 4.03787 575.175 2.56814C642.529 -9.55714 710.302 -21.6824 777.656 -33.8077C784.768 -34.91 791.879 -36.3797 799.41 -36.0123C809.868 -35.6449 819.49 -31.6031 829.112 -27.5614C874.712 -8.08741 918.221 15.7957 957.545 44.088"
                  stroke="#BFCFC1" stroke-width="3" stroke-miterlimit="10"/>
        </g>
    </g>
</svg>
