<svg width="21" height="37" viewBox="0 0 21 37" fill="none" xmlns="http://www.w3.org/2000/svg">
    <path d="M18.86 36.0116C18.6745 36.013 18.4905 35.9774 18.3188 35.907C18.1472 35.8367 17.9912 35.7328 17.86 35.6016L0 17.7216L17.3 0.421648C17.428 0.290326 17.5807 0.185509 17.7492 0.113182C17.9178 0.0408546 18.0989 0.00243335 18.2823 0.000111887C18.4657 -0.00220958 18.6478 0.0316144 18.8181 0.0996521C18.9884 0.16769 19.1437 0.268609 19.275 0.396648C19.4063 0.524687 19.5111 0.677337 19.5835 0.845885C19.6558 1.01443 19.6942 1.19557 19.6965 1.37897C19.6989 1.56237 19.665 1.74442 19.597 1.91475C19.529 2.08507 19.428 2.24033 19.3 2.37165L3.91 17.7216L19.84 33.6516C19.9755 33.7806 20.0835 33.9357 20.1572 34.1076C20.231 34.2795 20.269 34.4646 20.269 34.6516C20.269 34.8387 20.231 35.0238 20.1572 35.1957C20.0835 35.3676 19.9755 35.5227 19.84 35.6516C19.572 35.8935 19.2209 36.0225 18.86 36.0116Z"
          fill="white"/>
</svg>
