<svg width="587" height="199" viewBox="0 0 587 199" fill="none" xmlns="http://www.w3.org/2000/svg">
    <path d="M99.0898 198.18C153.816 198.18 198.18 153.816 198.18 99.0898C198.18 44.364 153.816 0 99.0898 0C44.364 0 0 44.364 0 99.0898C0 153.816 44.364 198.18 99.0898 198.18Z"
          fill="url(#paint0_linear)"/>
    <path d="M53.6172 48.0527H144.384V65.3416H75.635L53.6172 48.0527Z" fill="white"/>
    <path d="M53.6187 89.5479H144.385V106.837H53.6187V89.5479Z" fill="white"/>
    <path d="M53.6187 150.057H144.385V132.768H75.6365L53.6187 150.057Z" fill="white"/>
    <path d="M237.233 134.629V59.9413H290.901V75.3056H253.451V88.4293H274.363V103.794H253.451V119.158H293.035V134.629H237.233ZM350.728 134.629L335.364 111.049L319.999 134.629H300.901L325.868 96.2182L302.288 59.9413H321.387L335.364 81.3874L349.234 59.9413H368.44L344.966 96.2182L369.827 134.629H350.728ZM380.411 134.629V59.9413H396.628V134.629H380.411ZM413.011 59.9413H440.539C446.799 59.9413 452.347 61.0083 457.184 63.1422C462.021 65.205 465.826 68.0503 468.6 71.678C471.445 75.2345 473.544 79.1823 474.895 83.5213C476.318 87.8603 477.029 92.4482 477.029 97.2851C477.029 100.842 476.638 104.327 475.856 107.741C475.073 111.085 473.757 114.428 471.908 117.771C470.058 121.043 467.747 123.924 464.973 126.413C462.198 128.832 458.677 130.823 454.41 132.388C450.142 133.882 445.376 134.629 440.112 134.629H413.011V59.9413ZM441.819 119.158C447.937 119.158 452.525 116.988 455.583 112.649C458.642 108.239 460.171 103.118 460.171 97.2851C460.171 91.4524 458.677 86.331 455.69 81.9208C452.774 77.5107 448.541 75.3056 442.993 75.3056H429.229V119.158H441.819ZM490.754 134.629V59.9413H506.972V134.629H490.754ZM553.87 135.909C549.175 135.909 544.907 135.162 541.066 133.669C537.296 132.175 534.167 130.183 531.677 127.694C529.187 125.133 527.089 122.181 525.382 118.838C523.746 115.495 522.537 112.045 521.754 108.488C521.043 104.861 520.687 101.126 520.687 97.2851C520.687 93.4441 521.043 89.7452 521.754 86.1887C522.537 82.561 523.746 79.0756 525.382 75.7324C527.089 72.3893 529.187 69.4729 531.677 66.9833C534.167 64.4226 537.296 62.3954 541.066 60.9016C544.907 59.4079 549.175 58.661 553.87 58.661C559.631 58.661 564.717 59.7991 569.127 62.0753C573.538 64.2803 576.987 67.3034 579.477 71.1445C581.967 74.9144 583.816 79.0045 585.025 83.4146C586.306 87.8247 586.946 92.4482 586.946 97.2851C586.946 102.122 586.306 106.746 585.025 111.156C583.816 115.566 581.967 119.691 579.477 123.532C576.987 127.302 573.538 130.325 569.127 132.602C564.717 134.807 559.631 135.909 553.87 135.909ZM553.87 120.225C557.569 120.225 560.698 118.98 563.259 116.491C565.82 113.93 567.598 111.013 568.594 107.741C569.59 104.398 570.088 100.913 570.088 97.2851C570.088 93.4441 569.625 89.8875 568.701 86.6155C567.776 83.2723 566.033 80.3915 563.473 77.9731C560.912 75.4835 557.711 74.2387 553.87 74.2387C550.029 74.2387 546.792 75.519 544.161 78.0798C541.6 80.5693 539.857 83.4857 538.932 86.8289C538.008 90.1009 537.545 93.5863 537.545 97.2851C537.545 100.059 537.83 102.727 538.399 105.287C538.968 107.848 539.857 110.302 541.066 112.649C542.276 114.926 543.983 116.775 546.188 118.198C548.393 119.549 550.954 120.225 553.87 120.225Z"
          fill="white"/>
    <defs>
        <linearGradient id="paint0_linear" x1="179.427" y1="9.44351" x2="40.1349" y2="183.361"
                        gradientUnits="userSpaceOnUse">
            <stop stop-color="#BF99FF"/>
            <stop offset="1" stop-color="#5B47FF"/>
        </linearGradient>
    </defs>
</svg>
