<svg width="98" height="97" viewBox="0 0 98 97" fill="none" xmlns="http://www.w3.org/2000/svg">
<path d="M49 0C21.9369 0 0 21.713 0 48.5C0 75.2856 21.9369 97 49 97C76.0617 97 98 75.2856 98 48.5C98 21.713 76.0617 0 49 0ZM49 88.6867C26.6124 88.6867 8.39904 70.6578 8.39904 48.5C8.39904 26.3408 26.6124 8.31334 49 8.31334C71.3862 8.31334 89.601 26.3408 89.601 48.5C89.601 70.6578 71.3862 88.6867 49 88.6867Z" fill="#DC3545"/>
<path d="M76 28L69.5 21.5L47.5 43.5L32.5 28.6882L26 23L20.1926 28.6882L40.5 49L22 67.5L29 75L48 56L68.007 76.0146L75.5 68.5L55 49L76 28Z" fill="#DC3545"/>
</svg>
