<svg style="position: absolute; width: 0; height: 0; overflow: hidden;" version="1.1"
     xmlns="http://www.w3.org/2000/svg">
    <defs>
        <symbol id="icon-github" viewBox="0 0 17 14">
            <path d="M7.512.15C3.732.15.67 3.124.67 6.794c0 2.936 1.96 5.427 4.677 6.305.343.062.468-.143.468-.32 0-.158-.006-.576-.009-1.13-1.903.4-2.304-.891-2.304-.891-.311-.767-.76-.972-.76-.972-.62-.412.047-.404.047-.404.687.046 1.048.685 1.048.685.61 1.016 1.601.722 1.992.553.062-.43.238-.723.433-.89-1.519-.165-3.116-.737-3.116-3.283 0-.725.266-1.318.704-1.783-.076-.168-.307-.844.06-1.759 0 0 .573-.178 1.882.682a6.751 6.751 0 0 1 1.71-.225 6.751 6.751 0 0 1 1.71.225c1.3-.86 1.873-.682 1.873-.682.367.915.136 1.591.068 1.76.436.464.701 1.057.701 1.782 0 2.553-1.599 3.115-3.12 3.278.239.2.46.607.46 1.23 0 .89-.008 1.604-.008 1.82 0 .174.12.382.47.315 2.738-.872 4.696-3.364 4.696-6.296 0-3.67-3.063-6.646-6.841-6.646z"
                  fill="#55678B"/>
        </symbol>
        <symbol id="icon-telegram" viewBox="0 0 17 14">
            <path d="M1.605 5.48L15.31.214c.636-.23 1.192.154.986 1.113v-.001L13.964 12.28c-.173.777-.636.966-1.284.6l-3.554-2.61-1.714 1.645c-.19.19-.35.348-.716.348l.252-3.603 6.586-5.93c.287-.25-.064-.392-.442-.142L4.952 7.695l-3.508-1.09c-.762-.241-.779-.76.16-1.125z"
                  fill="#55678B"/>
        </symbol>
        <symbol id="icon-twitter" viewBox="0 0 17 14">
            <path d="M16.473 1.674c-.59.258-1.217.43-1.872.513A3.231 3.231 0 0 0 16.031.39a6.493 6.493 0 0 1-2.061.787A3.248 3.248 0 0 0 8.35 3.4c0 .257.021.505.075.74A9.197 9.197 0 0 1 1.728.742a3.254 3.254 0 0 0 .998 4.343 3.209 3.209 0 0 1-1.468-.4v.035a3.264 3.264 0 0 0 2.604 3.192 3.243 3.243 0 0 1-.852.107c-.208 0-.418-.012-.615-.055a3.28 3.28 0 0 0 3.036 2.263 6.528 6.528 0 0 1-4.029 1.386c-.266 0-.522-.012-.777-.045a9.147 9.147 0 0 0 4.984 1.458c5.979 0 9.248-4.952 9.248-9.245 0-.144-.005-.283-.012-.42a6.481 6.481 0 0 0 1.628-1.687z"
                  fill="#55678B"/>
        </symbol>
        <symbol id="icon-wallet" viewBox="0 0 22 20">
            <path d="M19.319 15.006V2.654L5.287 5.705v12.363l14.032-3.062zM0 15.7V1.586C0 1.112.387.725.862.725H20.18c.477 0 .862.387.862.861v14.157l-.003.01v.033l-.003.005v.018h-.002l-.003.018v.003l-.002.015-.003.018-.002.01v.008a.87.87 0 0 1-.255.448l-.01.008-.005.003-.013.012a.888.888 0 0 1-.15.105l-.016.007-.002.003-.016.005-.002.003-.013.005a.812.812 0 0 1-.22.069L4.65 19.968a.863.863 0 0 1-1.086-.834v-2.574H.862A.864.864 0 0 1 0 15.7zM12.161 2.448H1.723v12.388h1.84V5.012a.86.86 0 0 1 .681-.841l7.917-1.723z"
                  />
            <path d="M8.04 8.212a.86.86 0 0 1-.384-1.677l3.385-.78a.858.858 0 1 1 .385 1.675l-3.385.782z"/>
        </symbol>
        <symbol id="icon-dvpn" viewBox="0 0 17 22">
            <path d="M14.759 7.822h-1.893V2.26A2.253 2.253 0 0 0 10.625 0h-4.25a2.253 2.253 0 0 0-2.241 2.26v5.562H2.241A2.253 2.253 0 0 0 0 10.082v9.659A2.253 2.253 0 0 0 2.241 22H14.76A2.253 2.253 0 0 0 17 19.74v-9.658a2.253 2.253 0 0 0-2.241-2.26zM5.815 2.26c0-.311.251-.564.56-.564h4.25c.309 0 .56.253.56.564v5.563h-5.37V2.26zm9.504 17.482a.563.563 0 0 1-.56.564H2.24a.563.563 0 0 1-.56-.564v-9.66c0-.311.251-.564.56-.564H14.76c.309 0 .56.253.56.565v9.659zm-7.66-2.984H9.34v-3.578H7.66v3.578z"
            />
        </symbol>
    </defs>
</svg>
