<svg aria-hidden="true" style="position: absolute; width: 0; height: 0; overflow: hidden;" version="1.1"
     xmlns="http://www.w3.org/2000/svg">
    <defs>
        <symbol id="icon-rectangle" viewBox="0 0 32 32">
            <title>Rectangle</title>
            <path d="M8.727 0h14.545c4.82 0 8.727 3.907 8.727 8.727v14.545c0 4.82-3.907 8.727-8.727 8.727h-14.545c-4.82 0-8.727-3.907-8.727-8.727v-14.545c0-4.82 3.907-8.727 8.727-8.727z"/>
        </symbol>
        <symbol id="icon-dashboard" viewBox="0 0 30 32">
            <title>Dashboard</title>
            <path d="M28.952 0h-10.667c-0.842 0-1.524 0.682-1.524 1.524v15.238c0 0.842 0.682 1.524 1.524 1.524h10.667c0.842 0 1.524-0.682 1.524-1.524v-15.238c0-0.842-0.682-1.524-1.524-1.524z"/>
            <path d="M12.19 13.714h-10.667c-0.842 0-1.524 0.682-1.524 1.524v15.238c0 0.842 0.682 1.524 1.524 1.524h10.667c0.842 0 1.524-0.682 1.524-1.524v-15.238c0-0.842-0.682-1.524-1.524-1.524z"/>
            <path d="M12.19 0h-10.667c-0.842 0-1.524 0.682-1.524 1.524v9.143c0 0.842 0.682 1.524 1.524 1.524h10.667c0.842 0 1.524-0.682 1.524-1.524v-9.143c0-0.842-0.682-1.524-1.524-1.524z"/>
            <path d="M28.952 19.81h-10.667c-0.842 0-1.524 0.682-1.524 1.524v9.143c0 0.842 0.682 1.524 1.524 1.524h10.667c0.842 0 1.524-0.682 1.524-1.524v-9.143c0-0.842-0.682-1.524-1.524-1.524z"/>
        </symbol>
        <symbol id="icon-services" viewBox="0 0 32 32">
            <title>Services</title>
            <path d="M20.83 2.133c1.172-1.309 2.875-2.133 4.77-2.133 3.535 0 6.4 2.865 6.4 6.4 0 1.895-0.824 3.598-2.133 4.77v12.311c0 4.705-3.813 8.519-8.519 8.519h-12.829c-4.705 0-8.519-3.813-8.519-8.519v-12.829c0-4.705 3.813-8.519 8.519-8.519h12.311zM19.2 6.4h-10.668c-2.373 0-4.266 1.91-4.266 4.266v12.802c0 2.373 1.91 4.266 4.266 4.266h12.802c2.373 0 4.266-1.91 4.266-4.266v-10.667c-3.535 0-6.4-2.865-6.4-6.4zM25.6 10.667c2.356 0 4.267-1.91 4.267-4.267s-1.91-4.267-4.267-4.267c-2.356 0-4.267 1.91-4.267 4.267s1.91 4.267 4.267 4.267z"/>
        </symbol>
        <symbol id="icon-wallet" viewBox="0 0 35 32">
            <title>Wallet</title>
            <path d="M30.91 22.851v-19.764l-22.451 4.882v19.78l22.451-4.898zM0 23.96v-22.582c0-0.759 0.62-1.378 1.378-1.378h30.91c0.763 0 1.378 0.62 1.378 1.378v22.651l-0.004 0.016v0.053l-0.004 0.008v0.028h-0.004l-0.004 0.029v0.004l-0.004 0.024-0.004 0.029-0.004 0.016v0.012c-0.061 0.281-0.208 0.53-0.408 0.718l-0.016 0.012-0.008 0.004-0.016 0.016-0.004 0.004c-0.073 0.065-0.155 0.118-0.241 0.167l-0.024 0.012-0.004 0.004-0.024 0.008-0.004 0.004-0.020 0.008c-0.11 0.053-0.228 0.090-0.351 0.11l-25.078 5.473c-0.114 0.029-0.237 0.049-0.359 0.049-0.763 0-1.378-0.62-1.378-1.383v-4.119h-4.323c-0.759 0-1.378-0.62-1.378-1.379zM19.458 2.757h-16.701v19.821h2.945v-15.718c0-0.636 0.44-1.207 1.089-1.346l12.667-2.757z"/>
            <path d="M12.865 11.979c-0.738 0.171-1.476-0.294-1.648-1.032-0.171-0.742 0.294-1.48 1.032-1.652l5.416-1.248c0.742-0.171 1.48 0.294 1.648 1.032 0.171 0.742-0.294 1.48-1.032 1.648l-5.416 1.252z"/>
        </symbol>
        <symbol id="icon-notifications" viewBox="0 0 28 32">
            <title>Notifications</title>
            <path fill="#55678b" style="fill: var(--color1, #55678b)"
                  d="M1.842 26.661c-2.456 0-2.456-3.625 0-3.625 1.988 0 2.105-7.016 2.105-9.472 0-5.847 3.508-9.238 7.484-10.056-0.702-1.637 0.468-3.508 2.222-3.508s2.923 1.871 2.222 3.508c3.976 0.819 7.484 4.21 7.484 10.056 0 2.456 0.117 9.472 2.105 9.472 2.456 0 2.456 3.625 0 3.625h-23.621z"/>
            <path fill="#55678b" style="fill: var(--color1, #55678b)"
                  d="M15.757 27.479c0.935 1.637-0.234 3.742-2.105 3.742s-3.040-2.105-2.105-3.742h4.21z"/>
        </symbol>
        <symbol id="icon-create_new_account" viewBox="0 0 29 32">
            <title>Create New Account</title>
            <path fill="#55678b" style="fill: var(--color1, #55678b)"
                  d="M17.939 18.323v10.656h-5.99v-10.656h-10.541v-5.76h10.541v-10.656h5.99v10.656h10.541v5.76h-10.541z"/>
        </symbol>
        <symbol id="icon-recover_account" viewBox="0 0 24 32">
            <title>Recover Account</title>
            <path fill="#55678b" style="fill: var(--color1, #55678b)"
                  d="M19.468 12.187h-14.428c-2.068 0-3.711 1.677-3.711 3.745v10.107c0 2.068 1.644 3.778 3.711 3.778h14.428c2.068 0 3.731-1.703 3.731-3.778v-10.107c0-2.068-1.663-3.745-3.731-3.745zM14.173 27.032h-3.824l0.716-4.686c-0.862-0.437-1.405-1.306-1.405-2.306 0-1.438 1.16-2.605 2.605-2.605 1.438 0 2.605 1.166 2.605 2.605 0 1.001-0.563 1.869-1.392 2.306l0.696 4.686z"/>
            <path fill="#55678b" style="fill: var(--color1, #55678b)"
                  d="M14.175 26.702c-1.272 0-2.545 0-3.824 0 0.106 0.139 0.212 0.278 0.318 0.418 0.126-0.802 0.245-1.604 0.371-2.406 0.080-0.53 0.166-1.060 0.245-1.597 0.040-0.245 0.119-0.524 0.119-0.775 0-0.113-0.060-0.232-0.166-0.285-1.498-0.795-1.67-2.976-0.212-3.923 1.372-0.888 3.267-0.040 3.499 1.591 0.133 0.961-0.371 1.876-1.206 2.333-0.139 0.080-0.172 0.232-0.152 0.371 0.232 1.564 0.464 3.128 0.689 4.686 0.060 0.418 0.703 0.239 0.636-0.179-0.232-1.564-0.464-3.128-0.689-4.686-0.053 0.126-0.099 0.252-0.152 0.371 0.941-0.517 1.557-1.511 1.557-2.591 0-0.994-0.524-1.935-1.359-2.479-1.77-1.147-4.195 0-4.48 2.074-0.166 1.226 0.444 2.419 1.538 2.996-0.053-0.093-0.113-0.192-0.166-0.285 0-0.199-0.013 0.073-0.020 0.126-0.027 0.172-0.053 0.345-0.080 0.517-0.080 0.537-0.166 1.074-0.245 1.611-0.119 0.782-0.239 1.564-0.358 2.346-0.033 0.212 0.086 0.418 0.318 0.418 1.272 0 2.545 0 3.824 0 0.424 0.013 0.424-0.65-0.007-0.65z"/>
            <path fill="#55678b" style="fill: var(--color1, #55678b)"
                  d="M19.47 11.857c-1.823 0-3.652 0-5.474 0-2.644 0-5.295 0-7.94 0-0.815 0-1.637-0.046-2.412 0.252-1.624 0.616-2.638 2.174-2.644 3.897-0.007 2.392 0 4.778 0 7.171 0 0.928 0 1.862 0 2.79 0.007 1.71 0.988 3.287 2.605 3.917 0.782 0.305 1.597 0.272 2.419 0.272 1.153 0 2.306 0 3.453 0 2.77 0 5.547 0 8.317 0 0.557 0 1.12 0.007 1.677 0 2.048-0.020 3.778-1.577 4.030-3.605 0.099-0.775 0.033-1.597 0.033-2.373 0-1.432 0-2.863 0-4.295 0-1.166 0-2.326 0-3.493 0-0.318 0.007-0.63-0.033-0.948-0.119-0.981-0.597-1.902-1.339-2.558-0.749-0.663-1.697-1.014-2.691-1.027-0.424-0.007-0.424 0.656 0 0.663 1.889 0.020 3.38 1.551 3.4 3.433 0.007 0.775 0 1.551 0 2.326 0 2.479 0 4.957 0 7.436 0 0.358 0 0.709-0.073 1.060-0.205 0.941-0.795 1.776-1.63 2.26-0.782 0.457-1.604 0.457-2.472 0.457-2.479 0-4.951 0-7.429 0-2.041 0-4.082 0.007-6.124 0-1.538 0-2.909-0.961-3.34-2.459-0.225-0.775-0.139-1.65-0.139-2.452 0-2.591 0-5.176 0-7.767 0-0.278 0-0.557 0-0.842 0.007-0.756 0.225-1.485 0.676-2.094 0.57-0.769 1.478-1.272 2.432-1.345 0.205-0.013 0.411-0.013 0.616-0.013 2.267 0 4.54 0 6.806 0 2.3 0 4.593 0 6.893 0 0.126 0 0.258 0 0.384 0 0.431 0 0.431-0.663 0-0.663z"/>
            <path fill="#55678b" style="fill: var(--color1, #55678b)"
                  d="M19.309 6.361l-1.968 0.046c-0.265-0.795-0.709-1.504-1.292-2.081-0.968-0.968-2.32-1.564-3.798-1.564-2.956 0-5.362 2.393-5.362 5.348v4.049h-1.789v-4.354c0.007-3.963 3.214-7.178 7.178-7.178 1.982 0 3.778 0.802 5.077 2.108 0.974 0.968 1.67 2.22 1.955 3.625z"/>
            <path fill="#55678b" style="fill: var(--color1, #55678b)"
                  d="M19.311 6.031c-0.656 0.013-1.312 0.033-1.968 0.046 0.106 0.080 0.212 0.159 0.318 0.245-0.59-1.69-1.909-3.035-3.612-3.605-1.538-0.51-3.274-0.318-4.672 0.504-1.279 0.756-2.227 2.015-2.605 3.453-0.239 0.901-0.186 1.842-0.186 2.77 0 0.915 0 1.836 0 2.75 0.113-0.113 0.219-0.219 0.331-0.331-0.61 0-1.219 0-1.829 0 0.113 0.113 0.219 0.219 0.331 0.331 0-0.954 0-1.915 0-2.87 0-1.14-0.053-2.28 0.258-3.387 0.484-1.697 1.624-3.161 3.148-4.043 1.677-0.974 3.725-1.186 5.567-0.596 2.339 0.756 4.089 2.764 4.593 5.156 0.086 0.418 0.729 0.239 0.636-0.179-0.477-2.233-1.962-4.182-4.016-5.196-1.882-0.934-4.136-1.040-6.097-0.258-1.73 0.696-3.188 2.021-3.996 3.705-0.418 0.868-0.669 1.809-0.736 2.777-0.033 0.431-0.020 0.862-0.020 1.292 0 1.2 0 2.393 0 3.592 0 0.179 0.152 0.331 0.331 0.331 0.61 0 1.219 0 1.829 0 0.179 0 0.331-0.152 0.331-0.331 0-1.392-0.027-2.784 0-4.169 0.053-2.916 2.671-5.203 5.56-4.898 1.929 0.205 3.572 1.557 4.208 3.38 0.046 0.139 0.166 0.245 0.318 0.245 0.656-0.013 1.312-0.033 1.968-0.046 0.431-0.013 0.431-0.676 0.007-0.669z"/>
        </symbol>
        <symbol id="icon-exit" viewBox="0 0 30 32">
            <title>Exit</title>
            <path fill="#55678b" style="fill: var(--color1, #55678b)"
                  d="M22.651 23.027l6.474-5.669c0.512-0.448 0.564-1.226 0.116-1.739-0.036-0.041-0.075-0.080-0.116-0.116l-6.513-5.703c-0.489-0.428-1.227-0.402-1.684 0.059l-0.006 0.006c-0.431 0.435-0.428 1.136 0.006 1.568 0.013 0.013 0.027 0.026 0.041 0.038l4.151 3.727h-16.498c-0.68 0-1.231 0.552-1.231 1.232s0.551 1.232 1.231 1.232h16.498l-4.095 3.551c-0.498 0.432-0.552 1.186-0.12 1.684 0.006 0.007 0.012 0.014 0.018 0.021l0.008 0.009c0.451 0.497 1.217 0.541 1.722 0.099zM18.473 7.812c-0.68 0-1.232-0.552-1.232-1.233v-2.464h-13.547c-0.68 0-1.231 0.552-1.231 1.232v22.177c0 0.68 0.551 1.232 1.231 1.232h13.547v-2.464c0-0.681 0.551-1.233 1.232-1.233s1.232 0.552 1.232 1.233v2.464c-0.008 1.232-1.239 2.464-2.463 2.464h-14.779c-1.232 0-2.463-1.232-2.463-2.464v-24.641c0-1.232 1.232-2.464 2.463-2.464h14.772c1.231 0 2.462 1.258 2.462 2.464l0.005 2.464c0.001 0.679-0.548 1.231-1.226 1.233-0.001 0-0.002 0-0.003 0z"/>
        </symbol>
        <symbol id="icon-copy" viewBox="0 0 45 32">
        <title>Copy</title>
        <path fill="#8ea1c8" style="fill: var(--color1, #8ea1c8)"
              d="M12 7.385c-0.69 0-1.351 0.259-1.838 0.721s-0.762 1.088-0.762 1.741v17.231c0 0.653 0.274 1.279 0.762 1.741s1.149 0.721 1.838 0.721h26c0.341 0 0.68-0.064 0.995-0.187s0.602-0.305 0.844-0.534c0.242-0.229 0.433-0.5 0.564-0.799s0.198-0.619 0.198-0.942v-17.231c0-0.323-0.067-0.643-0.198-0.942s-0.322-0.57-0.564-0.799c-0.241-0.229-0.528-0.41-0.844-0.534s-0.653-0.187-0.995-0.187h-26zM12 4.923h26c1.379 0 2.702 0.519 3.677 1.442s1.523 2.175 1.523 3.481v17.231c0 1.306-0.548 2.558-1.523 3.481s-2.298 1.442-3.677 1.442h-26c-1.379 0-2.702-0.519-3.677-1.442s-1.523-2.175-1.523-3.481v-17.231c0-1.306 0.548-2.558 1.523-3.481s2.298-1.442 3.677-1.442zM14.6 14.769h10.4v2.462h-10.4v-2.462zM14.6 22.154h18.2v2.462h-18.2v-2.462zM4.2 24.615v-18.462c0-0.979 0.411-1.918 1.142-2.611s1.723-1.081 2.758-1.081h29.9c0.171 0 0.34-0.032 0.498-0.094s0.301-0.152 0.422-0.267c0.121-0.114 0.217-0.25 0.282-0.399s0.099-0.309 0.099-0.471c0-0.162-0.034-0.322-0.099-0.471s-0.161-0.285-0.282-0.399c-0.121-0.114-0.264-0.205-0.422-0.267s-0.327-0.094-0.498-0.094h-29.9c-1.724 0-3.377 0.648-4.596 1.802s-1.904 2.719-1.904 4.351v18.462c-0 0.162 0.034 0.322 0.099 0.471s0.161 0.285 0.282 0.399c0.121 0.114 0.264 0.205 0.422 0.267s0.327 0.094 0.498 0.094 0.34-0.032 0.498-0.094c0.158-0.062 0.301-0.153 0.422-0.267s0.216-0.25 0.282-0.399 0.099-0.309 0.099-0.471z"/>
        <symbol id="icon-wallet_gear" viewBox="0 0 32 32">
            <title>Wallet Gear</title>
            <path fill='#1a253a' style="fill: var(--color1, #1a253a)"
                  d="M20.389 0l-2.325 2.324c-1.161 1.161-3.061 1.161-4.223 0l-2.325-2.324c-1.308 0.363-2.55 0.882-3.707 1.536v3.285c0 1.642-1.344 2.985-2.986 2.985h-3.286c-0.655 1.156-1.174 2.398-1.537 3.705l2.325 2.323c1.162 1.161 1.161 3.060 0 4.221l-2.325 2.324c0.363 1.307 0.882 2.549 1.537 3.704h3.287c1.642 0 2.986 1.343 2.986 2.985v3.285c1.156 0.654 2.399 1.174 3.707 1.536l2.325-2.324c1.162-1.161 3.062-1.161 4.223 0l2.325 2.324c1.308-0.363 2.55-0.882 3.707-1.536v-3.285c0-1.642 1.344-2.985 2.986-2.985h3.286c0.655-1.156 1.174-2.398 1.537-3.705l-2.325-2.324c-1.161-1.161-1.161-3.060 0-4.221l2.325-2.324c-0.363-1.307-0.883-2.549-1.537-3.705h-3.286c-1.642 0-2.986-1.343-2.986-2.985v-3.284c-1.156-0.654-2.399-1.174-3.707-1.537zM15.953 10.002c3.284 0 5.946 2.661 5.946 5.944s-2.662 5.944-5.946 5.944c-3.284 0-5.946-2.661-5.946-5.944s2.662-5.944 5.946-5.944z"/>
        </symbol>
        <symbol id="icon-positive_arrow" viewBox="0 0 59 32">
            <title>Positive Arrow</title>
            <path fill="#31b24e" style="fill: var(--color2, #31b24e)" d="M29.333 0l25.403 28h-50.807l25.403-28z"/>
        </symbol>

        <symbol id="icon-negative_arrow" viewBox="0 0 59 32">
        <title>Negative Arrow</title>
        <path fill="#b23131" style="fill: var(--color1, #b23131)"
              d="M29.333 32l-25.403-28h50.807l-25.403 28z"/>
        <symbol id="icon-account_name" viewBox="0 0 30 32">
            <title>Account Name</title>
            <path fill="#8ea1c8" style="fill: var(--color1, #8ea1c8)"
                  d="M14.713 32c-2.119 0-4.132-0.53-5.934-1.483-8.053-4.132-10.066-14.834-8.053-22.993l0.424-1.907 2.119 0.318c1.272 0.212 3.497-0.212 4.874-0.53 1.589-0.318 3.815-1.695 4.874-2.967l1.695-2.437 1.801 2.437c0.954 1.272 3.179 2.649 4.768 2.967 1.378 0.318 3.603 0.742 4.98 0.53l2.013-0.318 0.53 1.907c1.907 8.159 0 18.861-8.053 22.993-1.907 0.954-3.921 1.483-6.040 1.483zM26.263 8.689c-1.801 0.212-4.026-0.212-5.616-0.636-2.013-0.53-4.45-1.907-5.934-3.497-1.483 1.589-3.921 2.967-5.934 3.497-1.589 0.424-3.815 0.848-5.51 0.636-1.589 6.781 0 16 6.676 19.391 1.483 0.848 3.073 1.165 4.768 1.165s3.285-0.318 4.768-1.165c6.781-3.391 8.265-12.609 6.781-19.391z"/>
            <path fill="#8ea1c8" style="fill: var(--color1, #8ea1c8)"
                  d="M17.998 17.589c1.801 0.954 3.179 2.755 3.497 4.874l0.106 0.53h-1.801v-0.424c-0.53-2.331-2.649-4.026-5.086-4.026s-4.556 1.695-4.98 4.026l-0.106 0.424h-1.801l0.106-0.53c0.318-2.119 1.695-3.921 3.497-4.874-0.954-0.954-1.589-2.225-1.589-3.709 0-2.649 2.225-4.874 4.874-4.874 2.755 0 4.874 2.225 4.874 4.874 0 1.483-0.53 2.755-1.589 3.709zM14.713 10.808c-1.695 0-3.073 1.377-3.073 3.073 0 1.801 1.377 3.179 3.073 3.179s3.179-1.377 3.179-3.179c0-1.695-1.483-3.073-3.179-3.073z"/>
        </symbol>
        <symbol id="icon-password" viewBox="0 0 25 32">
            <title>Password</title>
            <path fill="#8ea1c8" style="fill: var(--color1, #8ea1c8)"
                  d="M1.145 11.621h4.603v-4.64c0-1.933 0.764-3.673 2.015-4.941 1.252-1.246 2.97-2.041 4.857-2.041 1.909 0 3.627 0.795 4.879 2.041 1.252 1.267 2.015 3.007 2.015 4.941v4.64h4.582c0.636 0 1.167 0.516 1.167 1.16v17.443c0 0.644-0.53 1.16-1.167 1.16h-22.951c-0.636 0-1.145-0.516-1.145-1.16v-17.443c0-0.644 0.509-1.16 1.145-1.16zM11.476 19.763c0-0.644 0.509-1.16 1.145-1.16s1.145 0.516 1.145 1.16v3.48c0 0.645-0.509 1.181-1.145 1.181s-1.145-0.537-1.145-1.181v-3.48zM8.039 11.621h9.185v-4.64c0-1.289-0.53-2.449-1.358-3.287s-1.973-1.375-3.245-1.375c-1.252 0-2.397 0.537-3.245 1.375-0.827 0.838-1.336 1.998-1.336 3.287v4.64zM22.951 13.941h-20.66v15.123h20.66v-15.123z"/>
        </symbol>
        <symbol id="icon-received_arrow" viewBox="0 0 45 32">
            <title>Received arrow</title>
            <path fill="#31b34e" style="fill: var(--color1, #31b34e)"
                  d="M1.803 17.438c-0.817-0.794-0.854-2.081-0.082-2.875l12.573-12.938c0.772-0.794 2.059-0.794 2.876 0s0.854 2.081 0.082 2.875l-11.176 11.501 11.835 11.501c0.817 0.794 0.854 2.081 0.082 2.875s-2.059 0.794-2.876 0l-13.314-12.938zM43.61 18.033h-40.351l-0.117-4.066h40.351l0.116 4.066z"/>
        </symbol>
        <symbol id="icon-sent_arrow" viewBox="0 0 48 32">
            <title>Sent arrow</title>
            <path fill="#b33131" style="fill: var(--color1, #b33131)"
                  d="M44.948 17.438c0.817-0.794 0.854-2.081 0.083-2.875l-12.573-12.938c-0.771-0.794-2.059-0.794-2.876 0s-0.854 2.081-0.082 2.875l11.176 11.501-11.835 11.501c-0.817 0.794-0.854 2.081-0.082 2.875s2.059 0.794 2.876 0l13.314-12.938zM3.142 18.033h40.351l0.117-4.066h-40.351l-0.117 4.066z"/>
        </symbol>
        <symbol id="icon-back" viewBox="0 0 22 32">
            <title>Back</title>
            <path fill="none" stroke="#55678b" style="stroke: var(--color1, #55678b)" stroke-linejoin="miter"
                  stroke-linecap="butt" stroke-miterlimit="4" stroke-width="7.2689"
                  d="M18.216 4.019l-11.815 11.981 11.815 11.981"/>
        </symbol>
        <symbol id="icon-search" viewBox="0 0 32 32">
            <title>Search</title>
            <path d="M22.154 13.538c0-2.372-0.843-4.401-2.529-6.087s-3.715-2.529-6.087-2.529c-2.372 0-4.401 0.843-6.087 2.529s-2.529 3.715-2.529 6.087c0 2.372 0.843 4.401 2.529 6.087s3.715 2.529 6.087 2.529c2.372 0 4.401-0.843 6.087-2.529s2.529-3.715 2.529-6.087zM32 29.538c0 0.666-0.244 1.243-0.731 1.731s-1.064 0.731-1.731 0.731c-0.692 0-1.269-0.244-1.731-0.731l-6.596-6.577c-2.295 1.59-4.853 2.385-7.673 2.385-1.833 0-3.587-0.356-5.26-1.067s-3.115-1.673-4.327-2.885c-1.212-1.212-2.173-2.654-2.885-4.327s-1.067-3.426-1.067-5.26c0-1.833 0.356-3.587 1.067-5.26s1.673-3.115 2.885-4.327c1.212-1.212 2.654-2.173 4.327-2.885s3.426-1.067 5.26-1.067c1.833 0 3.587 0.356 5.26 1.067s3.115 1.673 4.327 2.885c1.211 1.212 2.173 2.654 2.885 4.327s1.067 3.426 1.067 5.26c0 2.821-0.795 5.378-2.385 7.673l6.596 6.596c0.474 0.474 0.712 1.051 0.712 1.731z"/>
        </symbol>
        <symbol id="icon-success" viewBox="0 0 32 32">
            <title>Success</title>
            <path fill="#1ab132" style="fill: var(--color1, #1ab132)"
                  d="M15.838 31.838c-8.727 0-15.838-7.079-15.838-15.806s7.111-15.774 15.838-15.774 15.838 7.079 15.838 15.806c0 8.727-7.111 15.774-15.838 15.774zM15.838 1.907c-7.822 0-14.158 6.335-14.158 14.125s6.335 14.158 14.158 14.158 14.19-6.335 14.19-14.158c0-7.822-6.368-14.125-14.19-14.125z"/>
            <path fill="#1ab132" style="fill: var(--color1, #1ab132)"
                  d="M14.933 21.98l-5.947-5.463 1.131-1.228 4.558 4.17 6.594-9.6 1.39 0.97-7.725 11.151z"/>
        </symbol>
        <symbol id="icon-success" viewBox="0 0 32 32">
            <title>Success</title>
            <path fill="#1ab132" style="fill: var(--color1, #1ab132)"
                  d="M15.838 31.838c-8.727 0-15.838-7.079-15.838-15.806s7.111-15.774 15.838-15.774 15.838 7.079 15.838 15.806c0 8.727-7.111 15.774-15.838 15.774zM15.838 1.907c-7.822 0-14.158 6.335-14.158 14.125s6.335 14.158 14.158 14.158 14.19-6.335 14.19-14.158c0-7.822-6.368-14.125-14.19-14.125z"/>
            <path fill="#1ab132" style="fill: var(--color1, #1ab132)"
                  d="M14.933 21.98l-5.947-5.463 1.131-1.228 4.558 4.17 6.594-9.6 1.39 0.97-7.725 11.151z"/>
        </symbol>
        <symbol id="icon-delete" viewBox="0 0 32 32">
            <title>Delete</title>
            <path fill="#f44336" style="fill: var(--color1, #f44336)"
                  d="M13.336 1.932h5.348v0.9h1.931v-1.026c0-0.996-0.809-1.806-1.804-1.806h-5.602c-0.995 0-1.805 0.81-1.805 1.806v1.026h1.932z"/>
            <path fill="#f44336" style="fill: var(--color1, #f44336)"
                  d="M25.076 10.484h-18.132c-0.497 0-0.888 0.424-0.848 0.919l1.516 18.744c0.084 1.046 0.957 1.852 2.006 1.852h12.784c1.049 0 1.921-0.806 2.006-1.853l1.516-18.744c0.040-0.495-0.351-0.919-0.848-0.919zM11.334 30.001c-0.020 0.001-0.041 0.002-0.061 0.002-0.506 0-0.931-0.394-0.963-0.907l-0.95-15.388c-0.033-0.532 0.372-0.991 0.905-1.023 0.531-0.032 0.991 0.372 1.023 0.905l0.95 15.388c0.033 0.532-0.372 0.99-0.904 1.023zM16.986 29.037c0 0.533-0.432 0.966-0.966 0.966s-0.966-0.432-0.966-0.966v-15.388c0-0.533 0.432-0.966 0.966-0.966s0.966 0.432 0.966 0.966zM22.659 13.706l-0.907 15.388c-0.030 0.513-0.456 0.909-0.963 0.909-0.019 0-0.038-0-0.058-0.001-0.532-0.032-0.939-0.489-0.907-1.021l0.907-15.388c0.031-0.532 0.487-0.939 1.021-0.907 0.532 0.031 0.939 0.489 0.907 1.021z"/>
            <path fill="#f44336" style="fill: var(--color1, #f44336)"
                  d="M28.416 7.504l-0.634-1.901c-0.167-0.501-0.636-0.839-1.165-0.839h-21.213c-0.528 0-0.998 0.338-1.165 0.839l-0.634 1.901c-0.122 0.367 0.037 0.741 0.334 0.927 0.121 0.076 0.264 0.122 0.422 0.122h23.3c0.157 0 0.301-0.046 0.422-0.122 0.297-0.187 0.456-0.561 0.334-0.927z"/>
        </symbol>
        <symbol id="icon-close" viewBox="0 0 32 32">
            <title>Close</title>
            <path fill="#f44336" style="fill: var(--color1, #f44336)"
                  d="M31.179 25.962l-25.078-25.078c-1.094-1.094-2.867-1.094-3.959 0l-1.322 1.32c-1.094 1.094-1.094 2.867 0 3.959l25.078 25.078c1.094 1.094 2.867 1.094 3.959 0l1.32-1.32c1.096-1.092 1.096-2.866 0.002-3.959z"/>
            <path fill="#f44336" style="fill: var(--color1, #f44336)"
                  d="M25.899 0.883l-25.078 25.078c-1.094 1.094-1.094 2.867 0 3.959l1.32 1.32c1.094 1.094 2.867 1.094 3.959 0l25.080-25.077c1.094-1.094 1.094-2.867 0-3.959l-1.32-1.32c-1.094-1.096-2.867-1.096-3.961-0.002z"/>
        </symbol>
        <symbol id="icon-check" viewBox="0 0 32 32">
            <title>Check</title>
            <path fill="#29895b" style="fill: var(--color1, #29895b)"
                  d="M0.369 17.231c-0.246-0.246-0.369-0.615-0.369-0.862s0.123-0.615 0.369-0.862l1.723-1.723c0.492-0.492 1.231-0.492 1.723 0l0.123 0.123 6.769 7.262c0.246 0.246 0.615 0.246 0.862 0l16.492-17.108h0.123c0.492-0.492 1.231-0.492 1.723 0l1.723 1.723c0.492 0.492 0.492 1.231 0 1.723l-19.692 20.431c-0.246 0.246-0.492 0.369-0.862 0.369s-0.615-0.123-0.862-0.369l-9.6-10.338-0.246-0.369z"/>
        </symbol>
        <symbol id="icon-export" viewBox="0 0 32 32">
            <title>Export</title>
            <path d="M22 18.062v7.938h-18v-18h6v-4h-8c-1.104 0-2 0.896-2 2v22c0 1.106 0.896 2 2 2h22c1.106 0 2-0.894 2-2v-9.938h-4z"/>
            <path d="M31.6 8.2l-8-6c-0.3-0.228-0.708-0.264-1.046-0.094-0.34 0.17-0.554 0.516-0.554 0.894v3h-3c-6.066 0-11 4.934-11 11 0 0.464 0.32 0.868 0.77 0.974 0.076 0.018 0.154 0.026 0.23 0.026 0.372 0 0.722-0.208 0.894-0.552l0.236-0.47c1.534-3.070 4.618-4.978 8.050-4.978h3.82v3c0 0.378 0.214 0.724 0.552 0.894s0.746 0.134 1.048-0.094l8-6c0.252-0.188 0.4-0.486 0.4-0.8s-0.148-0.612-0.4-0.8z"/>
        </symbol>
        <symbol id="icon-refresh" viewBox="0 0 32 32">
            <title>Refresh</title>
            <path d="M28.981 10.166l-1.326-9.281c-0.109-0.761-1.044-1.077-1.591-0.53l-1.931 1.931c-2.483-1.498-5.302-2.286-8.2-2.286-8.717 0-15.715 6.822-15.933 15.532-0.012 0.476 0.334 0.884 0.805 0.952l3.746 0.536c0.559 0.081 1.078-0.357 1.070-0.941-0.078-5.748 4.565-10.454 10.312-10.454 1.392 0 2.767 0.283 4.038 0.824l-1.861 1.861c-0.544 0.544-0.235 1.482 0.53 1.591l9.281 1.326c0.611 0.092 1.149-0.44 1.061-1.061z"/>
            <path d="M31.195 15.588l-3.744-0.535c-0.484-0.061-1.070 0.353-1.070 1.009 0 5.686-4.626 10.313-10.313 10.313-1.384 0-2.753-0.28-4.019-0.816l1.802-1.802c0.544-0.544 0.235-1.482-0.53-1.591l-9.281-1.327c-0.61-0.087-1.149 0.436-1.061 1.061l1.326 9.281c0.109 0.762 1.043 1.076 1.591 0.53l1.978-1.977c2.471 1.484 5.288 2.265 8.195 2.265 8.675 0 15.672-6.789 15.931-15.455 0.014-0.477-0.332-0.889-0.805-0.957z"/>
        </symbol>
        <symbol id="icon-import" viewBox="0 0 32 32">
            <title>Import</title>
            <path d="M22 26h-18v-18h2v-4h-4c-1.104 0-2 0.896-2 2v22c0 1.106 0.896 2 2 2h22c1.106 0 2-0.894 2-2v-11.938h-4v9.938z"/>
            <path d="M8.4 8.2l8-6c0.3-0.228 0.708-0.264 1.046-0.094 0.34 0.17 0.554 0.516 0.554 0.894v3h3c6.066 0 11 4.934 11 11 0 0.464-0.32 0.868-0.77 0.974-0.076 0.018-0.154 0.026-0.23 0.026-0.372 0-0.722-0.208-0.894-0.552l-0.236-0.47c-1.534-3.070-4.618-4.978-8.050-4.978h-3.82v3c0 0.378-0.214 0.724-0.552 0.894s-0.746 0.134-1.048-0.094l-8-6c-0.252-0.188-0.4-0.486-0.4-0.8s0.148-0.612 0.4-0.8z"/>
        </symbol>
    </defs>
</svg>
