<svg style="position: absolute; width: 0; height: 0; overflow: hidden;" version="1.1"
     xmlns="http://www.w3.org/2000/svg">
    <defs>
        <symbol id="icon-github" viewBox="0 0 17 14">
            <path d="M7.512.15C3.732.15.67 3.124.67 6.794c0 2.936 1.96 5.427 4.677 6.305.343.062.468-.143.468-.32 0-.158-.006-.576-.009-1.13-1.903.4-2.304-.891-2.304-.891-.311-.767-.76-.972-.76-.972-.62-.412.047-.404.047-.404.687.046 1.048.685 1.048.685.61 1.016 1.601.722 1.992.553.062-.43.238-.723.433-.89-1.519-.165-3.116-.737-3.116-3.283 0-.725.266-1.318.704-1.783-.076-.168-.307-.844.06-1.759 0 0 .573-.178 1.882.682a6.751 6.751 0 0 1 1.71-.225 6.751 6.751 0 0 1 1.71.225c1.3-.86 1.873-.682 1.873-.682.367.915.136 1.591.068 1.76.436.464.701 1.057.701 1.782 0 2.553-1.599 3.115-3.12 3.278.239.2.46.607.46 1.23 0 .89-.008 1.604-.008 1.82 0 .174.12.382.47.315 2.738-.872 4.696-3.364 4.696-6.296 0-3.67-3.063-6.646-6.841-6.646z"
                  fill="#55678B"/>
        </symbol>
        <symbol id="icon-telegram" viewBox="0 0 17 14">
            <path d="M1.605 5.48L15.31.214c.636-.23 1.192.154.986 1.113v-.001L13.964 12.28c-.173.777-.636.966-1.284.6l-3.554-2.61-1.714 1.645c-.19.19-.35.348-.716.348l.252-3.603 6.586-5.93c.287-.25-.064-.392-.442-.142L4.952 7.695l-3.508-1.09c-.762-.241-.779-.76.16-1.125z"
                  fill="#55678B"/>
        </symbol>
        <symbol id="icon-twitter" viewBox="0 0 17 14">
            <path d="M16.473 1.674c-.59.258-1.217.43-1.872.513A3.231 3.231 0 0 0 16.031.39a6.493 6.493 0 0 1-2.061.787A3.248 3.248 0 0 0 8.35 3.4c0 .257.021.505.075.74A9.197 9.197 0 0 1 1.728.742a3.254 3.254 0 0 0 .998 4.343 3.209 3.209 0 0 1-1.468-.4v.035a3.264 3.264 0 0 0 2.604 3.192 3.243 3.243 0 0 1-.852.107c-.208 0-.418-.012-.615-.055a3.28 3.28 0 0 0 3.036 2.263 6.528 6.528 0 0 1-4.029 1.386c-.266 0-.522-.012-.777-.045a9.147 9.147 0 0 0 4.984 1.458c5.979 0 9.248-4.952 9.248-9.245 0-.144-.005-.283-.012-.42a6.481 6.481 0 0 0 1.628-1.687z"
                  fill="#55678B"/>
        </symbol>
        <symbol id="icon-wallet" viewBox="0 0 22 20">
            <path d="M19.319 15.006V2.654L5.287 5.705v12.363l14.032-3.062zM0 15.7V1.586C0 1.112.387.725.862.725H20.18c.477 0 .862.387.862.861v14.157l-.003.01v.033l-.003.005v.018h-.002l-.003.018v.003l-.002.015-.003.018-.002.01v.008a.87.87 0 0 1-.255.448l-.01.008-.005.003-.013.012a.888.888 0 0 1-.15.105l-.016.007-.002.003-.016.005-.002.003-.013.005a.812.812 0 0 1-.22.069L4.65 19.968a.863.863 0 0 1-1.086-.834v-2.574H.862A.864.864 0 0 1 0 15.7zM12.161 2.448H1.723v12.388h1.84V5.012a.86.86 0 0 1 .681-.841l7.917-1.723z"
            />
            <path d="M8.04 8.212a.86.86 0 0 1-.384-1.677l3.385-.78a.858.858 0 1 1 .385 1.675l-3.385.782z"/>
        </symbol>
        <symbol id="icon-dvpn" viewBox="0 0 17 22">
            <path d="M14.759 7.822h-1.893V2.26A2.253 2.253 0 0 0 10.625 0h-4.25a2.253 2.253 0 0 0-2.241 2.26v5.562H2.241A2.253 2.253 0 0 0 0 10.082v9.659A2.253 2.253 0 0 0 2.241 22H14.76A2.253 2.253 0 0 0 17 19.74v-9.658a2.253 2.253 0 0 0-2.241-2.26zM5.815 2.26c0-.311.251-.564.56-.564h4.25c.309 0 .56.253.56.564v5.563h-5.37V2.26zm9.504 17.482a.563.563 0 0 1-.56.564H2.24a.563.563 0 0 1-.56-.564v-9.66c0-.311.251-.564.56-.564H14.76c.309 0 .56.253.56.565v9.659zm-7.66-2.984H9.34v-3.578H7.66v3.578z"
            />
        </symbol>
        <symbol id="icon-setting" viewBox="0 0 16 17">
            <path d="M.063 10.54a1.802 1.802 0 0 0 .181 1.379l.848 1.465a1.82 1.82 0 0 0 2.484.665l.371-.216c.42.308.874.57 1.351.782v.432c0 1.01.826 1.834 1.827 1.834H8.82a1.837 1.837 0 0 0 1.827-1.835v-.431c.477-.212.93-.474 1.35-.783l.374.217a1.821 1.821 0 0 0 2.483-.665l.847-1.466a1.816 1.816 0 0 0-.666-2.48l-.376-.216a6.76 6.76 0 0 0 0-1.563l.376-.216a1.818 1.818 0 0 0 .665-2.48l-.847-1.466a1.82 1.82 0 0 0-2.484-.665l-.371.216a7.247 7.247 0 0 0-1.351-.782v-.432C10.647.824 9.822 0 8.82 0H7.125a1.837 1.837 0 0 0-1.827 1.834v.432c-.477.212-.93.474-1.35.783l-.374-.217a1.818 1.818 0 0 0-2.482.665L.244 4.962A1.816 1.816 0 0 0 .91 7.443l.375.216c-.06.52-.06 1.044 0 1.563l-.375.216a1.806 1.806 0 0 0-.847 1.103zm1.46-.042l1.11-.64-.078-.424a5.544 5.544 0 0 1 0-1.986l.077-.425-1.11-.64a.594.594 0 0 1-.216-.81l.847-1.465a.594.594 0 0 1 .811-.217l1.112.64.33-.28a5.467 5.467 0 0 1 1.716-.993l.398-.145V1.834c0-.33.284-.614.605-.614H8.82c.32 0 .605.283.605.614v1.28l.4.144c.628.225 1.21.561 1.717.994l.327.28 1.113-.641a.595.595 0 0 1 .81.216l.847 1.466a.593.593 0 0 1-.217.81l-1.11.64.078.424c.12.656.12 1.33 0 1.986l-.077.425 1.11.64a.594.594 0 0 1 .216.81l-.847 1.465a.594.594 0 0 1-.811.217l-1.112-.64-.33.279a5.468 5.468 0 0 1-1.716.994l-.398.145v1.278c0 .33-.284.615-.605.615H7.125a.624.624 0 0 1-.605-.615v-1.278l-.4-.146a5.482 5.482 0 0 1-1.717-.993l-.327-.28-1.113.641a.595.595 0 0 1-.81-.217l-.848-1.466a.593.593 0 0 1 .218-.81z"
                  fill="#8EA1C8"/>
            <path d="M7.972 12.083a3.651 3.651 0 0 0 3.37-2.249 3.638 3.638 0 0 0-.79-3.97A3.65 3.65 0 0 0 4.325 8.44a3.644 3.644 0 0 0 1.07 2.575 3.654 3.654 0 0 0 2.577 1.068zm0-6.062a2.425 2.425 0 0 1 2.239 1.494 2.416 2.416 0 0 1-1.766 3.299 2.427 2.427 0 0 1-2.487-1.03A2.417 2.417 0 0 1 6.26 6.73a2.427 2.427 0 0 1 1.712-.709z"
                  fill="#8EA1C8"/>
        </symbol>
        <symbol id="icon-profile" viewBox="0 0 20 20">
            <path d="M6.9 9.52a4 4 0 1 1 6.2 0 10 10 0 0 1 5.82 5 10 10 0 1 0-17.84 0 10 10 0 0 1 5.82-5z"
                  fill="#BAD0DE"/>
            <path d="M10 11.02a8 8 0 0 0-7.59 5.49 10.001 10.001 0 0 0 15.18 0A8 8 0 0 0 10 11.02zM10 9.02a2 2 0 1 0 0-4 2 2 0 0 0 0 4z"
                  fill="#BAD0DE"/>
        </symbol>
        <symbol id="icon-copy" viewBox="0 0 11 9">
            <path d="M2.538 2.361a.651.651 0 0 0-.448.176.583.583 0 0 0-.185.423v4.192c0 .16.067.312.185.424.119.112.28.175.448.175h6.326a.664.664 0 0 0 .447-.175.598.598 0 0 0 .185-.424V2.96a.571.571 0 0 0-.185-.423.636.636 0 0 0-.447-.176H2.538zm0-.599h6.326c.335 0 .657.126.894.351.237.225.37.53.37.847v4.192c0 .318-.133.623-.37.847-.237.225-.559.351-.894.351H2.538c-.336 0-.658-.126-.895-.35a1.166 1.166 0 0 1-.37-.848V2.96c0-.318.133-.622.37-.847.237-.225.56-.35.895-.35zm.632 2.396H5.7v.599H3.17v-.6zm0 1.797h4.428v.598H3.17v-.598zm-2.53.598V2.062c0-.239.1-.467.278-.636a.977.977 0 0 1 .67-.263h7.276a.332.332 0 0 0 .223-.087.299.299 0 0 0 .093-.212.286.286 0 0 0-.093-.212.318.318 0 0 0-.223-.088H1.589c-.42 0-.822.158-1.118.439-.297.28-.464.662-.464 1.059v4.491a.286.286 0 0 0 .093.212.318.318 0 0 0 .224.088.332.332 0 0 0 .223-.088.299.299 0 0 0 .093-.212z"
                  fill="#55678B"/>
        </symbol>
        <symbol id="icon-success" viewBox="0 0 14 14">
            <path d="M12.6 4.2v4.2a4.205 4.205 0 0 1-4.2 4.2H4.2a.7.7 0 1 0 0 1.4h4.2A5.606 5.606 0 0 0 14 8.4V4.2a.7.7 0 1 0-1.4 0z"
                  fill="#1AB132"/>
            <path d="M8.4 11.9a3.504 3.504 0 0 0 3.5-3.5V3.5A3.504 3.504 0 0 0 8.4 0H3.5A3.504 3.504 0 0 0 0 3.5v4.9a3.504 3.504 0 0 0 3.5 3.5h4.9zM4.067 5.19l.895 1.237 2.962-2.741a.7.7 0 0 1 .951 1.028L5.333 7.991a.7.7 0 0 1-1.042-.104L2.933 6.01a.7.7 0 0 1 1.134-.82z"
                  fill="#1AB132"/>
        </symbol>
        <symbol id="icon-download" viewBox="0 0 12 12">
            <path d="M11.34 12H.66C.3 12 0 11.713 0 11.371c0-.341.301-.628.66-.628h10.68c.359 0 .66.287.66.628 0 .342-.301.629-.66.629zM6.01 9.287c-.358 0-.66-.287-.66-.628V.629c0-.342.302-.629.66-.629.357 0 .659.287.659.629v8.03c0 .341-.302.628-.66.628z"
                  fill="#55678B"/>
            <path d="M6.01 9.287a.671.671 0 0 1-.471-.18l-3.09-2.963c-.264-.252-.264-.647 0-.88a.659.659 0 0 1 .923 0l3.09 2.946c.263.251.263.646 0 .88a.555.555 0 0 1-.453.197z"
                  fill="#55678B"/>
            <path d="M6.01 9.287a.671.671 0 0 1-.472-.18c-.263-.25-.263-.646 0-.88l3.109-2.964a.659.659 0 0 1 .923 0c.264.252.264.647 0 .88L6.48 9.109a.671.671 0 0 1-.47.18z"
                  fill="#55678B"/>
        </symbol>
        <symbol id="icon-tooltip" viewBox="0 0 17 17">
            <circle cx="8.5" cy="8.5" r="8" stroke="#55678B"/>
            <path d="M8.045 10.38c0-.546.066-.982.2-1.306.132-.324.374-.642.726-.955.355-.316.591-.572.709-.767.117-.2.175-.409.175-.627 0-.66-.304-.99-.914-.99-.289 0-.521.09-.697.269-.172.176-.262.42-.27.732H6.276c.008-.746.248-1.33.721-1.752.477-.421 1.125-.632 1.945-.632.829 0 1.471.2 1.928.603.457.399.686.963.686 1.693 0 .332-.075.647-.223.944-.148.293-.408.619-.78.978l-.474.451c-.297.286-.467.62-.51 1.002l-.023.358h-1.5zm-.17 1.8c0-.262.088-.477.264-.645a.952.952 0 0 1 .685-.258c.278 0 .504.086.68.258.18.168.27.383.27.645 0 .258-.088.47-.264.638-.172.168-.4.252-.686.252-.285 0-.515-.084-.691-.252a.855.855 0 0 1-.258-.638z"
                  fill="#8EA1C8"/>
        </symbol>
        <symbol id="icon-errorInfo" viewBox="0 0 22 22">
            <path fill-rule="evenodd" clip-rule="evenodd"
                  d="M11 22c6.075 0 11-4.925 11-11S17.075 0 11 0 0 4.925 0 11s4.925 11 11 11zm0-2a9 9 0 1 0 0-18 9 9 0 0 0 0 18zM10 6h2v7h-2V6zm0 8h2v2h-2v-2z"
                  fill="#DC3545"/>
        </symbol>
    </defs>
</svg>
