<svg width="267" height="49" viewBox="0 0 267 49" fill="none" xmlns="http://www.w3.org/2000/svg">
    <path fill-rule="evenodd" clip-rule="evenodd"
          d="M0 0.714844H42.2499V23.6728C42.2499 27.0885 41.4454 32.4617 38.5266 37.4612C35.5804 42.5066 30.5166 47.1022 21.1249 49.0004C11.7342 47.1025 6.66992 42.5073 3.7228 37.4619C0.803973 32.4612 0 27.088 0 23.6717V0.714844ZM40.741 2.22377V23.6717C40.741 30.1247 37.8858 43.9715 21.1249 47.4915C4.36409 43.9715 1.50892 30.1247 1.50892 23.6717V2.22377H40.741Z"
          fill="#00B6FA"/>
    <path d="M40.7409 2.22363H1.50891V23.6716C1.50891 30.1246 4.36408 43.9713 21.1249 47.5668C37.8858 43.9713 40.7409 30.1246 40.7409 23.6716V2.22363Z"
          fill="#142D51"/>
    <path d="M35.9124 7.8125H6.33746V17.5508L26.4344 34.0523L24.5554 35.5966L6.33746 20.637V23.7243C6.33746 30.1773 9.88344 40.0277 21.1249 41.9021C30.6854 40.3088 34.6798 32.9451 35.6606 26.8084C35.6818 26.6763 15.8154 10.308 15.8154 10.308H19.5736L35.9124 23.7232L35.9124 7.8125Z"
          fill="#10A0EC"/>
    <path d="M82.6077 32.4516C82.6077 35.3274 81.5624 37.5699 79.4717 39.1791C77.3811 40.7884 74.5438 41.593 70.9599 41.593C67.0773 41.593 64.0906 41.0938 62 40.0955V36.43C63.344 36.9962 64.8074 37.4432 66.3903 37.771C67.9732 38.0988 69.5412 38.2627 71.0943 38.2627C73.6329 38.2627 75.5443 37.7859 76.8286 36.8323C78.1128 35.8638 78.7549 34.5227 78.7549 32.8092C78.7549 31.6768 78.5235 30.7529 78.0605 30.0377C77.6126 29.3076 76.851 28.6371 75.7758 28.0262C74.7155 27.4152 73.0953 26.7224 70.9151 25.9476C67.8687 24.8598 65.6885 23.5709 64.3744 22.0809C63.0752 20.5909 62.4256 18.6463 62.4256 16.2474C62.4256 13.7292 63.3738 11.7251 65.2703 10.2351C67.1669 8.74502 69.6756 8 72.7966 8C76.052 8 79.0461 8.59602 81.7789 9.78805L80.5917 13.0959C77.8888 11.9635 75.2606 11.3973 72.707 11.3973C70.6911 11.3973 69.1156 11.8294 67.9807 12.6936C66.8458 13.5579 66.2783 14.7573 66.2783 16.2921C66.2783 17.4245 66.4874 18.3558 66.9055 19.0859C67.3236 19.8011 68.0255 20.4642 69.0111 21.0751C70.0116 21.6711 71.5348 22.3342 73.5806 23.0643C77.0152 24.2862 79.3747 25.5974 80.6589 26.998C81.9581 28.3987 82.6077 30.2165 82.6077 32.4516Z"
          fill="#F6F8FB"/>
    <path d="M107.561 41.146H89.3052V8.46936H107.561V11.8443H93.1131V22.3715H106.687V25.724H93.1131V37.7487H107.561V41.146Z"
          fill="#F6F8FB"/>
    <path d="M140.421 41.146H136.076L118.178 13.7218H117.999C118.238 16.9403 118.358 19.8905 118.358 22.5726V41.146H114.841V8.46936H119.141L136.994 35.7818H137.173C137.143 35.3795 137.076 34.0906 136.972 31.9152C136.867 29.7248 136.83 28.1603 136.86 27.2215V8.46936H140.421V41.146Z"
          fill="#F6F8FB"/>
    <path d="M159.506 41.146H155.698V11.8443H145.327V8.46936H169.877V11.8443H159.506V41.146Z" fill="#F6F8FB"/>
    <path d="M174.827 41.146V8.46936H178.635V41.146H174.827Z" fill="#F6F8FB"/>
    <path d="M213.22 41.146H208.874L190.977 13.7218H190.798C191.037 16.9403 191.156 19.8905 191.156 22.5726V41.146H187.64V8.46936H191.94L209.793 35.7818H209.972C209.942 35.3795 209.875 34.0906 209.77 31.9152C209.666 29.7248 209.629 28.1603 209.658 27.2215V8.46936H213.22V41.146Z"
          fill="#F6F8FB"/>
    <path d="M240.48 41.146H222.225V8.46936H240.48V11.8443H226.033V22.3715H239.607V25.724H226.033V37.7487H240.48V41.146Z"
          fill="#F6F8FB"/>
    <path d="M247.76 41.146V8.46936H251.568V37.704H266.016V41.146H247.76Z" fill="#F6F8FB"/>
</svg>
