<svg width="20" height="20" viewBox="0 0 20 20" fill="none" xmlns="http://www.w3.org/2000/svg">
    <path d="M6.90019 9.52062C6.42201 8.93421 6.11996 8.22419 6.02911 7.473C5.93826 6.72182 6.06233 5.96026 6.38691 5.27676C6.7115 4.59325 7.2233 4.01583 7.86289 3.61152C8.50247 3.20721 9.24362 2.99259 10.0003 2.99259C10.7569 2.99259 11.4981 3.20721 12.1377 3.61152C12.7773 4.01583 13.2891 4.59325 13.6136 5.27676C13.9382 5.96026 14.0623 6.72182 13.9715 7.473C13.8806 8.22419 13.5786 8.93421 13.1004 9.52062C14.3519 9.92985 15.5103 10.5822 16.5091 11.4403C17.5079 12.2983 18.3274 13.3452 18.9205 14.5208C19.6931 12.9962 20.0621 11.299 19.9922 9.59124C19.9223 7.88348 19.4158 6.22214 18.5212 4.7658C17.6265 3.30946 16.3736 2.10672 14.8818 1.2724C13.3901 0.438071 11.7095 0 10.0003 0C8.29109 0 6.61043 0.438071 5.11872 1.2724C3.627 2.10672 2.37402 3.30946 1.47938 4.7658C0.58473 6.22214 0.0782818 7.88348 0.00837044 9.59124C-0.0615409 11.299 0.307419 12.9962 1.08003 14.5208C1.6732 13.3452 2.49269 12.2983 3.49147 11.4403C4.49025 10.5822 5.64865 9.92985 6.90019 9.52062Z"
          fill="#BAD0DE"/>
    <path d="M9.99988 11.0205C8.31824 11.0218 6.67976 11.5529 5.31719 12.5385C3.95463 13.5241 2.93728 14.9139 2.40967 16.5107C3.34849 17.6051 4.51287 18.4835 5.82299 19.0858C7.1331 19.688 8.55797 19.9999 9.99988 19.9999C11.4418 19.9999 12.8667 19.688 14.1768 19.0858C15.4869 18.4835 16.6513 17.6051 17.5901 16.5107C17.0625 14.9139 16.0451 13.5241 14.6826 12.5385C13.32 11.5529 11.6815 11.0218 9.99988 11.0205Z"
          fill="#BAD0DE"/>
    <path d="M10.0005 9.02062C11.1051 9.02062 12.0006 8.12516 12.0006 7.02056C12.0006 5.91596 11.1051 5.02051 10.0005 5.02051C8.89594 5.02051 8.00049 5.91596 8.00049 7.02056C8.00049 8.12516 8.89594 9.02062 10.0005 9.02062Z"
          fill="#BAD0DE"/>
</svg>
